<svg width="310" height="80" viewBox="0 0 310 80" fill="none" xmlns="http://www.w3.org/2000/svg">
<path d="M0.601562 0H43.083V17.4962H19.6349V30.7795H42.2459V48.2756H19.6349V77.9953H0.601562V0Z" fill="black"/>
<path d="M77.493 17.6026C98.7382 17.6026 108.933 34.3657 108.933 48.7C108.933 63.0343 98.7294 79.7974 77.493 79.7974C56.2567 79.7974 46.0527 63.0343 46.0527 48.7C46.0527 34.3657 56.2567 17.6026 77.493 17.6026ZM77.493 63.4494C85.0623 63.4494 91.4773 57.2317 91.4773 48.6912C91.4773 40.1507 85.0623 33.9329 77.493 33.9329C69.9238 33.9329 63.5088 40.1507 63.5088 48.6912C63.5088 57.2317 69.9238 63.4494 77.493 63.4494Z" fill="black"/>
<path d="M152.851 19.5025H169.152V25.7202H169.364C170.73 23.3002 174.519 17.4976 185.454 17.4976C190.609 17.4976 197.65 19.2905 202.276 27.9282C205.853 22.2404 211.845 17.4976 220.78 17.4976C224.878 17.4976 231.399 18.4426 236.13 23.3974C241.603 29.1911 242.44 33.0949 242.44 46.0602V77.9967H224.984V46.8993C224.984 42.1565 224.984 33.9339 216.048 33.9339C206.373 33.9339 206.373 42.7836 206.373 46.0514V77.9879H188.917V46.1574C188.917 42.9955 188.917 33.9339 180.185 33.9339C170.298 33.9339 170.298 43.4195 170.298 46.8993V77.9967H152.842V19.5025H152.851Z" fill="black"/>
<path d="M310 77.9951H292.544V71.6714H292.332C289.389 77.3592 282.128 80 275.299 80C256.794 80 245.956 65.4537 245.956 48.6994C245.956 29.5164 259.729 17.5049 275.299 17.5049C284.869 17.5049 290.235 22.1416 292.332 25.7274H292.544V19.5097H310V78.004V77.9951ZM277.934 63.6608C288.869 63.6608 292.553 54.3872 292.553 48.6906C292.553 41.625 287.715 33.8264 277.828 33.8264C267.941 33.8264 263.421 42.2609 263.421 48.9026C263.421 54.3872 267.421 63.6608 277.934 63.6608Z" fill="black"/>
<path d="M130.037 19.4995H112.572V77.9937H130.037V19.4995Z" fill="black"/>
<path d="M147.502 19.4995H130.037V37.0045H147.502V19.4995Z" fill="black"/>
</svg>
