<svg width="24" height="24" viewBox="0 0 24 24" fill="none" xmlns="http://www.w3.org/2000/svg">
<path d="M15.75 10.4932V5.99316C15.75 3.9221 14.0711 2.24316 12 2.24316C9.92893 2.24316 8.25 3.9221 8.25 5.99316V10.4932M19.606 8.50039L20.8692 20.5004C20.9391 21.1646 20.4183 21.7432 19.7504 21.7432H4.24963C3.58172 21.7432 3.06089 21.1646 3.13081 20.5004L4.39397 8.50039C4.45424 7.92783 4.93706 7.49316 5.51279 7.49316H18.4872C19.0629 7.49316 19.5458 7.92783 19.606 8.50039ZM8.625 10.4932C8.625 10.7003 8.4571 10.8682 8.25 10.8682C8.04289 10.8682 7.875 10.7003 7.875 10.4932C7.875 10.2861 8.04289 10.1182 8.25 10.1182C8.4571 10.1182 8.625 10.2861 8.625 10.4932ZM16.125 10.4932C16.125 10.7003 15.9571 10.8682 15.75 10.8682C15.5429 10.8682 15.375 10.7003 15.375 10.4932C15.375 10.2861 15.5429 10.1182 15.75 10.1182C15.9571 10.1182 16.125 10.2861 16.125 10.4932Z" stroke="#0F172A" stroke-width="1.5" stroke-linecap="round" stroke-linejoin="round"/>
</svg>
