<svg width="24" height="24" viewBox="0 0 24 24" fill="none" xmlns="http://www.w3.org/2000/svg">
<path d="M17.9815 18.718C16.6121 16.9106 14.4424 15.7432 12 15.7432C9.55761 15.7432 7.38789 16.9106 6.01846 18.718M17.9815 18.718C19.8335 17.0695 21 14.6676 21 11.9932C21 7.0226 16.9706 2.99316 12 2.99316C7.02944 2.99316 3 7.0226 3 11.9932C3 14.6676 4.1665 17.0695 6.01846 18.718M17.9815 18.718C16.3915 20.1333 14.2962 20.9932 12 20.9932C9.70383 20.9932 7.60851 20.1333 6.01846 18.718M15 9.74316C15 11.4 13.6569 12.7432 12 12.7432C10.3431 12.7432 9 11.4 9 9.74316C9 8.08631 10.3431 6.74316 12 6.74316C13.6569 6.74316 15 8.08631 15 9.74316Z" stroke="#0F172A" stroke-width="1.5" stroke-linecap="round" stroke-linejoin="round"/>
</svg>
