<svg width="465" height="120" viewBox="0 0 465 120" fill="none" xmlns="http://www.w3.org/2000/svg">
<path d="M0 0H63.7221V26.2442H28.5501V46.1692H62.4665V72.4134H28.5501V116.993H0V0Z" fill="black"/>
<path d="M115.337 26.4039C147.205 26.4039 162.498 51.5486 162.498 73.0501C162.498 94.5515 147.192 119.696 115.337 119.696C83.4826 119.696 68.1766 94.5515 68.1766 73.0501C68.1766 51.5486 83.4826 26.4039 115.337 26.4039ZM115.337 95.1742C126.691 95.1742 136.313 85.8476 136.313 73.0368C136.313 60.226 126.691 50.8994 115.337 50.8994C103.983 50.8994 94.3607 60.226 94.3607 73.0368C94.3607 85.8476 103.983 95.1742 115.337 95.1742Z" fill="black"/>
<path d="M228.373 29.2536H252.826V38.5802H253.143C255.192 34.9503 260.876 26.2463 277.279 26.2463C285.011 26.2463 295.572 28.9357 302.511 41.8922C307.877 33.3605 316.865 26.2463 330.268 26.2463C336.414 26.2463 346.195 27.6639 353.293 35.096C361.501 43.7867 362.757 49.6423 362.757 69.0903V116.995H336.573V70.3489C336.573 63.2347 336.573 50.9008 323.17 50.9008C308.657 50.9008 308.657 64.1753 308.657 69.0771V116.982H282.473V69.236C282.473 64.4932 282.473 50.9008 269.375 50.9008C254.544 50.9008 254.544 65.1292 254.544 70.3489V116.995H228.36V29.2536H228.373Z" fill="black"/>
<path d="M464.097 116.993H437.913V107.507H437.596C433.181 116.039 422.29 120 412.046 120C384.289 120 368.031 98.1805 368.031 73.0491C368.031 44.2745 388.691 26.2573 412.046 26.2573C426.401 26.2573 434.45 33.2125 437.596 38.5911H437.913V29.2646H464.097V117.006V116.993ZM415.998 95.4912C432.401 95.4912 437.926 81.5808 437.926 73.0359C437.926 62.4375 430.67 50.7395 415.84 50.7395C401.009 50.7395 394.229 63.3913 394.229 73.3538C394.229 81.5808 400.23 95.4912 415.998 95.4912Z" fill="black"/>
<path d="M194.153 29.2493H167.956V116.991H194.153V29.2493Z" fill="black"/>
<path d="M220.351 29.2493H194.153V55.5068H220.351V29.2493Z" fill="black"/>
</svg>
