<svg width="465" height="120" viewBox="0 0 465 120" fill="none" xmlns="http://www.w3.org/2000/svg">
<path d="M0 0H63.7221V26.2442H28.5501V46.1692H62.4665V72.4134H28.5501V116.993H0V0Z" fill="black"/>
<path d="M115.337 26.4039C147.205 26.4039 162.498 51.5486 162.498 73.0501C162.498 94.5515 147.192 119.696 115.337 119.696C83.4828 119.696 68.1768 94.5515 68.1768 73.0501C68.1768 51.5486 83.4828 26.4039 115.337 26.4039ZM115.337 95.1742C126.691 95.1742 136.314 85.8476 136.314 73.0368C136.314 60.226 126.691 50.8994 115.337 50.8994C103.983 50.8994 94.3609 60.226 94.3609 73.0368C94.3609 85.8476 103.983 95.1742 115.337 95.1742Z" fill="black"/>
<path d="M228.374 29.2536H252.826V38.5802H253.143C255.192 34.9503 260.876 26.2463 277.279 26.2463C285.011 26.2463 295.572 28.9357 302.511 41.8922C307.878 33.3605 316.866 26.2463 330.268 26.2463C336.414 26.2463 346.195 27.6639 353.293 35.096C361.501 43.7867 362.757 49.6423 362.757 69.0903V116.995H336.573V70.3489C336.573 63.2347 336.573 50.9008 323.17 50.9008C308.657 50.9008 308.657 64.1753 308.657 69.0771V116.982H282.473V69.236C282.473 64.4932 282.473 50.9008 269.375 50.9008C254.544 50.9008 254.544 65.1292 254.544 70.3489V116.995H228.36V29.2536H228.374Z" fill="black"/>
<path d="M464.097 116.993H437.913V107.507H437.596C433.181 116.039 422.29 120 412.046 120C384.289 120 368.031 98.1806 368.031 73.0492C368.031 44.2746 388.69 26.2573 412.046 26.2573C426.4 26.2573 434.45 33.2125 437.596 38.5912H437.913V29.2646H464.097V117.006V116.993ZM415.998 95.4913C432.401 95.4913 437.926 81.5809 437.926 73.0359C437.926 62.4376 430.67 50.7396 415.839 50.7396C401.009 50.7396 394.229 63.3914 394.229 73.3539C394.229 81.5809 400.229 95.4913 415.998 95.4913Z" fill="black"/>
<path fill-rule="evenodd" clip-rule="evenodd" d="M167.956 29.2493H194.153H194.153H220.351V55.5068H194.153V116.991H167.956V29.2493Z" fill="black"/>
</svg>
