<svg width="16" height="17" viewBox="0 0 16 17" fill="none" xmlns="http://www.w3.org/2000/svg">
<g clip-path="url(#clip0_162_469)">
<path d="M15.844 8.68429C15.844 8.14047 15.8 7.59371 15.7059 7.05872H8.16003V10.1394H12.4812C12.3019 11.1329 11.7257 12.0119 10.8821 12.5704V14.5693H13.4601C14.9739 13.1759 15.844 11.1182 15.844 8.68429Z" fill="#4285F4"/>
<path d="M8.15999 16.5005C10.3176 16.5005 12.1372 15.7921 13.4629 14.5692L10.885 12.5703C10.1677 13.0583 9.24174 13.3346 8.16293 13.3346C6.07584 13.3346 4.30623 11.9266 3.67128 10.0335H1.01099V12.0941C2.36906 14.7956 5.13518 16.5005 8.15999 16.5005Z" fill="#34A853"/>
<path d="M3.66839 10.0335C3.33328 9.03992 3.33328 7.96405 3.66839 6.97048V4.90985H1.01104C-0.123633 7.17037 -0.123633 9.8336 1.01104 12.0941L3.66839 10.0335Z" fill="#FBBC04"/>
<path d="M8.15999 3.66644C9.30053 3.6488 10.4029 4.07798 11.2289 4.86578L13.5129 2.58174C12.0667 1.22367 10.1471 0.477023 8.15999 0.500539C5.13518 0.500539 2.36906 2.20548 1.01099 4.90987L3.66834 6.9705C4.30035 5.07449 6.0729 3.66644 8.15999 3.66644Z" fill="#EA4335"/>
</g>
<defs>
<clipPath id="clip0_162_469">
<rect width="16" height="16" fill="white" transform="translate(0 0.5)"/>
</clipPath>
</defs>
</svg>
