<svg width="245" height="82" viewBox="0 0 245 82" fill="none" xmlns="http://www.w3.org/2000/svg">
<g clip-path="url(#clip0_683_14031)">
<path d="M208.931 16.14C209.731 16.14 209.531 16.34 210.531 16.34C210.991 16.34 211.521 16.26 212.131 16.26C212.621 16.26 213.161 16.09 213.731 16.1C214.241 16.1 214.771 16.13 215.331 16.14C215.851 16.14 216.381 16.27 216.931 16.29C217.481 16.31 217.991 16.18 218.531 16.2C219.071 16.22 219.591 16.37 220.121 16.39C220.651 16.41 221.201 16.28 221.731 16.3C222.261 16.32 222.791 16.65 223.311 16.69C223.831 16.73 224.401 16.64 224.911 16.69C225.461 16.74 226.011 16.61 226.521 16.67C227.081 16.73 227.601 16.92 228.091 17C228.831 17.18 228.691 17.11 229.551 17.43C229.961 17.58 230.441 17.78 230.961 17.98C231.411 18.16 231.801 18.56 232.281 18.76C232.761 18.96 233.331 18.9 233.791 19.11C234.251 19.32 234.591 19.83 235.011 20.06C235.491 20.32 236.081 20.35 236.461 20.61C237.091 21.13 236.981 21.12 237.631 21.77C237.991 22.13 238.381 22.56 238.741 22.97C239.151 23.43 239.371 23.98 239.611 24.35C239.951 24.88 240.291 25.44 240.591 26C240.911 26.6 241.251 27.16 241.531 27.68C241.651 27.89 241.691 27.87 241.771 28.1C242.021 28.83 241.771 28.71 241.931 29.63C242.001 30.07 242.141 30.58 242.221 31.14C242.291 31.62 242.491 32.11 242.551 32.64C242.611 33.14 242.641 33.66 242.681 34.18C242.721 34.7 242.631 35.22 242.651 35.72C242.671 36.26 242.881 36.78 242.861 37.26C242.831 37.83 242.811 38.37 242.711 38.81C242.601 39.28 242.231 39.68 242.081 40.12C241.931 40.56 241.931 41.1 241.741 41.52C241.551 41.94 241.171 42.31 240.951 42.72C240.731 43.13 240.521 43.58 240.301 43.98C240.071 44.38 239.951 44.83 239.731 45.2C239.501 45.6 239.271 45.98 239.081 46.36C238.891 46.74 238.641 47.15 238.471 47.55C238.801 48 239.251 48.36 239.561 48.81C239.871 49.26 239.931 49.89 240.221 50.35C240.511 50.81 240.841 51.26 241.101 51.74C241.361 52.22 241.821 52.61 242.061 53.11C242.301 53.61 242.321 54.2 242.531 54.71C242.741 55.22 243.081 55.68 243.251 56.21C243.421 56.74 243.541 57.28 243.671 57.81C243.801 58.34 243.751 58.91 243.841 59.46C243.931 60.01 243.991 60.54 244.041 61.09C244.091 61.64 244.141 62.17 244.151 62.73C244.161 63.29 244.221 63.82 244.191 64.38C244.161 64.94 244.171 65.48 244.101 66.03C244.041 66.54 243.871 67.05 243.691 67.57C243.521 68.05 243.231 68.5 242.981 68.99C242.731 69.48 242.631 70 242.331 70.45C242.031 70.9 241.631 71.24 241.301 71.67C240.971 72.1 240.651 72.5 240.301 72.9C239.951 73.3 239.691 73.79 239.321 74.16C238.951 74.53 238.411 74.77 238.041 75.12C237.641 75.5 237.351 75.96 236.971 76.3C236.551 76.67 236.101 76.96 235.721 77.28C235.261 77.66 234.841 78 234.481 78.28C233.711 78.88 233.951 78.91 233.241 79.26C232.761 79.4 232.181 79.47 231.571 79.57C231.041 79.65 230.481 79.86 229.901 79.91C229.321 79.96 228.761 80.02 228.201 80.05C227.641 80.08 227.031 79.82 226.491 79.84C225.871 79.86 225.291 80.05 224.801 80.05C223.781 80.05 223.951 79.94 223.111 79.92C222.581 79.91 222.051 80.06 221.521 80.06C220.991 80.06 220.461 79.82 219.921 79.83C219.381 79.84 218.871 79.9 218.331 79.91C217.781 79.92 217.221 79.96 216.651 79.96C216.081 79.96 215.531 80.1 214.971 80.1C214.411 80.1 213.861 79.87 213.301 79.84C212.591 79.81 212.581 80.01 211.871 79.99C211.161 79.97 211.171 79.79 210.451 79.76C209.731 79.73 209.731 79.86 209.021 79.85C208.601 79.88 208.071 79.8 207.481 79.82C207.001 79.84 206.501 79.82 205.961 79.73C205.481 79.65 204.891 79.75 204.401 79.51C203.691 79.09 203.851 78.89 203.201 78.34C202.741 77.96 202.251 77.58 202.031 77.19C201.781 76.76 201.721 76.28 201.591 75.83C201.461 75.35 201.111 74.92 201.071 74.46C201.031 74.03 201.201 73.59 201.201 73.17C201.201 72.73 201.261 72.3 201.281 71.9C201.331 71.08 201.361 70.83 201.371 69.75C201.371 69.25 201.261 68.66 201.261 68.02C201.261 67.47 201.321 66.88 201.321 66.29C201.321 65.7 201.251 65.12 201.251 64.56C201.251 63.93 201.251 63.34 201.251 62.83C201.251 61.8 201.171 61.96 201.251 61.1C201.371 59.96 201.411 59.4 201.531 58.82C201.651 58.2 202.001 57.74 201.981 57.28C201.921 56.72 201.751 56.13 201.691 55.51C201.631 54.93 201.661 54.32 201.611 53.72C201.561 53.12 201.551 52.53 201.551 51.94C201.551 51.29 201.341 51.29 201.331 50.65C201.321 50.01 201.431 50 201.421 49.35C201.421 48.83 201.191 48.31 201.191 47.79C201.191 47.27 201.421 46.75 201.421 46.22C201.421 45.69 201.411 45.18 201.411 44.66C201.411 44.14 201.271 43.62 201.271 43.09C201.271 42.56 201.431 42.05 201.441 41.53C201.451 41.01 201.471 40.49 201.481 39.96C201.491 39.43 201.341 38.91 201.351 38.39C201.361 37.87 201.291 37.34 201.311 36.82C201.331 36.3 201.571 35.79 201.601 35.26C201.631 34.73 201.581 34.21 201.611 33.69C201.641 33.17 201.611 32.64 201.661 32.12C201.711 31.54 201.631 31.53 201.681 30.95C201.741 30.3 202.001 29.65 202.031 28.99C202.061 28.33 201.891 27.68 201.911 27C201.921 26.62 201.931 26.11 201.951 25.57C201.971 25.09 202.141 24.6 202.171 24.15C202.221 23.35 202.111 23.43 202.191 22.72C202.281 21.89 202.341 22 202.561 21.09C202.691 20.58 202.811 20 203.011 19.48C203.221 18.9 203.561 18.41 203.861 18.05C204.171 17.67 204.551 17.42 204.941 17.17C205.331 16.92 205.681 16.57 206.141 16.42C206.571 16.28 207.071 16.37 207.551 16.31C208.001 16.26 208.461 16.1 208.951 16.11L208.931 16.14ZM215.271 52.67C214.731 52.72 214.111 52.53 213.591 52.62C212.991 52.73 212.451 53.04 212.171 53.51C211.931 53.9 211.921 54.45 211.801 55.01C211.701 55.48 211.621 55.98 211.591 56.53C211.561 57.03 211.441 57.55 211.451 58.07C211.461 58.59 211.631 59.1 211.671 59.61C211.711 60.12 211.641 60.68 211.701 61.16C211.771 61.73 212.001 62.22 212.081 62.67C212.231 63.59 212.031 63.44 212.061 64.22C212.101 65.31 212.131 65.69 212.061 66.38C211.981 67.13 212.081 67.89 212.061 68.61C212.041 69.34 211.971 69.89 212.081 70.28C212.161 70.55 212.511 70.64 212.821 70.66C213.181 70.68 213.591 70.69 214.081 70.65C214.571 70.61 215.071 70.79 215.581 70.74C216.031 70.7 216.491 70.36 216.921 70.36C217.361 70.34 217.891 70.63 218.451 70.62C218.951 70.61 219.461 70.33 219.971 70.32C220.511 70.32 221.041 70.32 221.501 70.32C222.391 70.32 222.261 70.32 223.021 70.34C223.561 70.37 224.141 70.5 224.721 70.4C225.271 70.31 225.831 70.14 226.371 69.97C226.911 69.8 227.461 69.57 227.971 69.36C228.541 69.13 229.071 68.88 229.521 68.67C230.431 68.23 230.411 68.48 231.091 67.98C231.441 67.63 231.731 67.1 231.971 66.59C232.191 66.13 232.261 65.57 232.411 65.05C232.561 64.53 232.711 64.02 232.811 63.51C232.921 62.94 233.121 62.42 233.181 61.95C233.301 61.02 233.121 61.15 233.121 60.36C233.081 59.92 232.901 59.52 232.661 59.05C232.451 58.64 232.391 58.1 232.091 57.7C231.791 57.3 231.321 57.06 231.001 56.72C230.641 56.33 230.421 55.85 230.101 55.56C229.481 54.98 229.571 55.05 228.981 54.63C228.531 54.35 228.011 54.22 227.531 54.02C227.051 53.82 226.561 53.65 226.051 53.52C225.541 53.39 225.051 53.25 224.521 53.17C223.991 53.09 223.481 53.18 222.951 53.13C222.421 53.08 221.951 52.75 221.411 52.71C220.871 52.67 220.371 52.7 219.841 52.66C219.081 52.6 219.161 52.83 218.301 52.79C217.821 52.76 217.301 52.53 216.781 52.52C216.211 52.51 215.671 52.63 215.261 52.67H215.271ZM214.421 25.89C213.671 26.06 212.891 26.43 212.591 27.15C212.461 27.55 212.441 28.05 212.391 28.54C212.351 28.96 212.501 29.43 212.511 29.91C212.511 30.34 212.511 30.8 212.551 31.28C212.581 31.72 212.501 32.34 212.541 32.97C212.571 33.54 212.741 34.13 212.771 34.66C212.821 35.61 212.721 35.51 212.731 36.36C212.711 37.11 212.771 37.92 212.711 38.6C212.641 39.32 212.291 39.96 212.311 40.57C212.321 41.09 212.511 41.55 212.631 41.96C212.771 42.41 213.121 42.68 213.461 43.02C214.081 43.52 214.121 43.64 214.811 43.77C215.171 43.84 215.581 43.8 216.021 43.82C216.401 43.84 216.801 43.85 217.231 43.84C217.691 43.82 218.171 44.02 218.631 43.98C219.091 43.94 219.531 43.6 219.981 43.55C220.391 43.5 220.841 43.76 221.241 43.71C221.681 43.66 222.071 43.35 222.441 43.32C223.011 43.27 223.551 43.24 224.071 43.16C224.631 43.08 225.161 43.01 225.671 42.88C226.211 42.75 226.791 42.76 227.281 42.56C227.771 42.36 228.271 42.09 228.751 41.81C229.231 41.53 229.631 41.19 230.061 40.82C230.471 40.46 230.871 39.93 231.231 39.3C231.521 38.79 231.901 38.23 232.131 37.59C232.261 37.21 232.331 36.72 232.421 36.24C232.511 35.76 232.451 35.29 232.511 34.87C232.611 34.1 232.731 34.2 232.681 33.53C232.601 32.61 232.631 32.64 232.321 31.71C232.121 31.11 231.681 30.57 231.361 30.13C230.971 29.59 230.511 29.14 230.031 28.72C229.511 28.27 229.101 27.69 228.541 27.42C228.011 27.18 227.411 27.17 226.891 26.99C226.371 26.81 225.861 26.48 225.311 26.35C224.761 26.22 224.201 26.16 223.631 26.08C223.061 26 222.511 26.05 221.941 26.01C221.371 25.97 220.831 25.92 220.251 25.9C219.671 25.88 219.131 25.83 218.561 25.83C218.221 25.83 218.081 25.98 217.881 25.97C217.491 25.97 216.981 25.67 216.451 25.66C215.921 25.66 214.421 25.87 214.401 25.87L214.421 25.89Z" fill="white"/>
<path d="M171.53 16.3094C172.04 16.2894 172.54 16.2394 173.03 16.3794C173.52 16.5194 173.93 16.7894 174.36 17.0894C174.79 17.3894 175.29 17.5794 175.59 18.0094C175.87 18.3994 176.1 18.8994 176.27 19.4094C176.43 19.8994 176.54 20.3994 176.69 20.8894C176.84 21.3794 176.95 21.8894 177.1 22.3694C177.25 22.8494 177.45 23.3394 177.6 23.8294C177.75 24.3194 177.89 24.8094 178.03 25.2994C178.32 26.2694 178.11 26.3294 178.4 27.2994C178.56 27.8394 178.89 28.3294 179.05 28.8694C179.21 29.4094 179.28 29.9794 179.44 30.5194C179.6 31.0594 179.79 31.5894 179.96 32.1294C180.13 32.6694 180.39 33.1794 180.57 33.7094C180.75 34.2394 180.83 34.8094 181.01 35.3394C181.19 35.8694 181.36 36.4194 181.56 36.9394C181.7 37.2994 181.66 37.3194 181.8 37.6794C181.99 38.1794 182.16 38.6794 182.33 39.1794C182.5 39.6794 182.79 40.1494 182.95 40.6594C183.11 41.1694 183.26 41.6794 183.41 42.1894C183.56 42.6994 183.7 43.2194 183.84 43.7294C183.98 44.2394 184.04 44.7794 184.18 45.2994C184.32 45.8194 184.47 46.3194 184.61 46.8394C184.75 47.3594 185.02 47.8294 185.16 48.3394C185.31 48.8694 185.24 49.4694 185.42 49.9894C185.6 50.5094 185.92 50.9794 186.12 51.4994C186.32 52.0194 186.44 52.5594 186.65 53.0694C186.86 53.5794 187.33 53.9694 187.56 54.4694C187.79 54.9694 187.94 55.4994 188.18 55.9994C188.42 56.4994 188.61 57.0094 188.84 57.5094C189.15 58.1794 189.26 58.1294 189.56 58.8094C189.86 59.4894 189.76 59.3694 190.06 60.1494C190.21 60.5494 190.23 61.0694 190.4 61.5394C190.57 61.9894 190.85 62.4094 191.01 62.8394C191.19 63.3394 191.35 63.8094 191.47 64.1894C191.66 64.7694 191.72 65.3794 191.9 65.9494C192.08 66.5194 192.43 67.0394 192.62 67.5994C192.81 68.1594 192.97 68.7494 193.19 69.2994C193.46 70.0294 193.35 69.9294 193.61 70.7994C193.75 71.2494 193.99 71.7394 194.13 72.2794C194.26 72.7794 194.24 73.3394 194.32 73.8394C194.42 74.3994 194.39 74.9294 194.38 75.3794C194.37 75.9394 194.58 76.5794 194.41 77.1494C194.26 77.6894 193.74 78.0994 193.39 78.5894C193 79.1294 192.55 79.5394 191.97 79.8894C191.43 80.2094 190.88 80.5894 190.18 80.7394C189.86 80.7794 189.85 80.8194 189.53 80.7894C188.86 80.6694 188.29 80.4194 187.77 80.1894C187.17 79.9194 186.75 79.4894 186.31 79.0994C185.84 78.6794 185.37 78.2994 185.04 77.7794C184.62 77.1294 184.23 76.4594 183.94 75.8394C183.64 75.1994 183.28 74.6694 182.94 74.1094C182.6 73.5594 182.33 73.1194 181.93 72.4994C181.56 71.9294 181.19 71.2594 180.87 70.5194C180.61 69.7894 180.82 69.7594 180.62 68.9794C180.48 68.4294 180.32 67.8594 180.25 67.4794C180.17 67.0294 180.19 66.5994 180.11 66.2094C180.02 65.7794 179.66 65.4394 179.55 65.0394C179.21 64.0294 178.87 63.7594 178.42 63.5794C178.02 63.4194 177.59 63.2794 176.97 63.1994C176.55 63.1494 176.05 63.1994 175.44 63.1294C175.01 63.1094 174.58 63.0394 174.14 62.9994C173.7 62.9594 173.26 62.9694 172.83 62.9194C172.39 62.8694 171.95 62.8094 171.52 62.7594C171.09 62.7094 170.67 62.4394 170.23 62.4094C169.71 62.3694 169.2 62.3694 168.72 62.3694C168.19 62.3694 167.7 62.4794 167.23 62.5394C166.71 62.6094 166.2 62.6494 165.75 62.8094C165.19 63.0994 165.24 63.1394 164.76 63.5894C164.45 63.8794 164.04 64.1794 163.87 64.5194C163.63 65.0094 163.6 65.6194 163.44 66.2094C163.29 66.7394 163.04 67.2694 162.91 67.8594C162.8 68.4594 162.76 69.0594 162.65 69.6494C162.54 70.2394 162.47 70.8394 162.36 71.4294C162.25 72.0194 162.07 72.5994 161.95 73.1794C161.85 73.7994 161.67 74.3694 161.45 74.9094C161.22 75.4894 161.01 76.0694 160.72 76.5694C160.4 77.1294 160.02 77.6094 159.74 78.0894C159.26 78.7494 159.39 78.7594 158.73 79.3994C158.36 79.7594 157.86 80.0794 157.42 80.4094C156.94 80.7694 156.43 81.1194 155.98 81.2394C155.55 81.3594 155.07 81.4694 154.6 81.4494C154.16 81.4294 153.73 81.1894 153.28 81.0194C152.81 80.8394 152.37 80.6094 151.98 80.2894C151.59 79.9694 151.35 79.5594 151.05 79.1394C150.69 78.4294 150.7 78.5594 150.44 77.6794C150.3 77.2194 150.24 76.6694 150.11 76.1194C149.98 75.5694 149.84 75.0694 149.77 74.5594C149.69 73.9694 149.58 73.4094 149.64 72.9594C149.69 72.5394 149.94 72.0694 150.07 71.5694C150.19 71.1094 150.16 70.5794 150.31 70.1294C150.48 69.6394 150.76 69.2094 150.92 68.7994C151.22 68.0094 151.32 68.1894 151.63 67.5394C151.88 67.0594 152.11 66.5694 152.35 66.0794C152.59 65.5894 152.78 65.0794 153 64.5794C153.22 64.0794 153.4 63.5694 153.61 63.0694C153.82 62.5694 154.04 62.0694 154.24 61.5594C154.44 61.0494 154.46 60.4894 154.65 59.9694C154.84 59.4494 155.06 58.9594 155.23 58.4494C155.4 57.9394 155.51 57.3994 155.67 56.8794C155.83 56.3594 156.13 55.8794 156.28 55.3594C156.43 54.8394 156.42 54.2694 156.57 53.7494C156.72 53.2294 156.92 52.7194 157.06 52.1994C157.2 51.6794 157.48 51.1894 157.61 50.6594C157.74 50.1294 157.71 49.5594 157.84 49.0294C157.97 48.5094 158.15 47.9894 158.3 47.4694C158.45 46.9494 158.78 46.4794 158.94 45.9594C159.1 45.4394 159.14 44.8794 159.3 44.3694C159.46 43.8594 159.45 43.2994 159.6 42.7994C159.75 42.2994 160.13 41.8494 160.27 41.3494C160.41 40.8494 160.59 40.3394 160.72 39.8294C160.83 39.3694 160.74 38.7894 160.91 38.2594C161.05 37.7794 161.2 37.2694 161.37 36.7594C161.54 36.2494 161.79 35.7994 161.96 35.2994C162.13 34.7994 162.25 34.2794 162.42 33.7994C162.61 33.2894 163.01 32.8694 163.19 32.4094C163.4 31.8694 163.62 31.3894 163.79 30.9694C164.14 30.0794 164.1 30.2494 164.39 29.5294C164.56 29.0894 164.73 28.5194 164.93 27.9494C165.12 27.4194 165.27 26.8494 165.43 26.3594C165.73 25.4694 165.52 25.5194 165.77 24.7294C165.98 24.0594 166.27 23.3794 166.41 22.4194C166.46 22.0594 166.44 21.4394 166.59 20.8694C166.79 20.0894 166.72 20.0894 166.97 19.3494C167.16 18.8794 167.38 18.4094 167.67 18.0394C167.98 17.6494 168.43 17.3994 168.82 17.1194C169.21 16.8394 169.67 16.6594 170.13 16.5094C170.59 16.3594 171.06 16.3094 171.54 16.2894L171.53 16.3094ZM171.04 41.2294C170.88 41.6694 170.8 42.2594 170.62 42.8494C170.47 43.3694 170.24 43.8994 170.1 44.4294C169.95 44.9994 170.02 45.6194 169.89 46.0994C169.65 47.0394 169.69 46.8994 169.48 47.7094C169.37 48.0894 169.1 48.6494 168.91 49.1794C168.7 49.7494 168.43 50.3494 168.24 50.9594C168.04 51.5794 167.76 52.4594 167.97 52.6894C168.25 52.9794 168.92 52.8794 169.61 52.9494C170.29 53.0194 170.98 53.2794 171.63 53.3094C172.21 53.3394 172.83 53.1894 173.25 53.2394C173.68 53.2794 174.1 53.4194 174.51 53.4394C174.96 53.4594 175.4 53.4294 175.78 53.3594C176.13 53.2994 176.15 53.1794 176.37 53.0494C176.47 52.9894 176.6 52.9394 176.63 52.7894C176.66 52.6194 176.69 52.4794 176.62 52.0694C176.55 51.6794 176.44 51.1894 176.25 50.6694C176.06 50.1594 175.84 49.6294 175.62 49.1194C175.41 48.6294 175.05 48.1594 174.88 47.7194C174.73 47.3394 174.54 46.8694 174.34 46.3694C174.17 45.9394 173.99 45.4794 173.81 45.0094C173.63 44.5394 173.53 44.0594 173.36 43.6194C173.17 43.1294 172.97 42.6694 172.81 42.2594C172.5 41.4594 172.38 41.6394 172.15 40.9594C172.01 40.4594 171.34 40.4894 171.05 41.2094L171.04 41.2294Z" fill="white"/>
<path d="M143.361 16.3095C143.841 16.2695 144.431 16.4295 145.051 16.3895C145.581 16.3595 146.151 16.2595 146.731 16.2595C147.311 16.2595 147.861 16.2095 148.411 16.2795C148.971 16.3495 149.551 16.4895 150.131 16.6795C150.711 16.8695 151.271 17.0295 151.771 17.3595C152.271 17.6895 152.591 18.1795 152.951 18.6695C153.281 19.1095 153.661 19.5695 153.861 20.1895C154.021 20.6895 153.961 21.1995 153.981 21.6695C154.001 22.1795 154.121 22.6895 153.971 23.1595C153.821 23.6295 153.581 24.0995 153.251 24.4895C152.831 24.9895 152.181 25.1795 151.631 25.4595C151.051 25.7595 150.521 26.1695 149.951 26.3095C149.461 26.4295 148.941 26.5795 148.421 26.6395C147.901 26.6995 147.361 26.5795 146.861 26.5995C146.311 26.6195 145.791 26.6595 145.311 26.6495C144.691 26.6495 144.151 26.6095 143.771 26.5995V26.6595V26.5795C143.291 26.5595 142.811 26.5195 142.311 26.5595C141.861 26.5995 141.381 26.5995 140.851 26.6495C140.291 26.6995 139.701 26.6995 139.071 26.6995C138.491 26.6995 137.911 26.6995 137.301 26.6095C136.571 26.4895 136.591 26.6495 135.821 26.5595C135.311 26.4995 134.781 26.2995 134.361 26.2795C133.861 26.2495 133.301 26.2595 132.741 26.2295C132.181 26.1995 131.651 26.2295 131.121 26.1795C130.421 26.1495 130.541 26.0695 129.711 26.0695C129.291 26.0695 128.801 26.1595 128.301 26.1595C127.831 26.1595 127.351 26.1995 126.881 26.1995C126.381 26.1995 125.891 26.2795 125.471 26.2795C124.511 26.3195 123.981 26.2295 123.611 26.3695C123.411 26.4495 123.191 26.6295 123.061 26.9795C122.851 27.5295 122.831 28.0595 122.811 28.6295C122.791 29.1995 122.611 29.7795 122.651 30.3395C122.691 30.9295 122.761 31.4895 122.701 32.0295C122.641 32.5295 122.621 33.1595 122.591 33.7895C122.561 34.4195 122.591 35.0095 122.581 35.5495C122.571 36.5295 122.571 37.2695 122.581 37.3095C122.611 37.6195 122.581 37.9595 122.601 38.2095C122.641 38.5895 122.731 38.9295 122.791 39.2195C122.861 39.5395 123.321 39.8395 123.861 40.0695C124.291 40.2595 124.771 40.5695 125.211 40.5895C125.691 40.6195 126.181 40.3295 126.671 40.3395C127.131 40.3395 127.351 40.4795 128.031 40.5095C128.631 40.5395 129.231 40.5995 129.821 40.5795C130.411 40.5595 130.991 40.4495 131.611 40.4095C132.181 40.3695 132.771 40.2195 133.401 40.1995C133.811 40.1795 134.351 40.2395 134.941 40.2895C135.431 40.3395 135.951 40.4395 136.451 40.5095C136.991 40.5895 137.521 40.6095 137.971 40.6795C138.841 40.8195 138.781 40.6695 139.491 40.9395C140.311 41.2595 140.161 41.5095 140.881 42.0795C141.381 42.4695 141.801 42.9295 142.001 43.3695C142.231 43.8895 142.571 44.3695 142.561 44.8695C142.561 45.4195 142.431 45.9995 142.241 46.4695C142.061 46.9095 141.771 47.3395 141.481 47.7295C141.191 48.1195 140.691 48.2995 140.321 48.6195C139.951 48.9395 139.671 49.3595 139.261 49.5995C138.851 49.8395 138.351 49.9495 137.901 50.0995C137.391 50.2695 136.901 50.5495 136.371 50.6695C135.841 50.7895 135.281 50.7195 134.741 50.7795C134.201 50.8395 133.671 50.9195 133.131 50.9395C132.591 50.9595 132.041 51.0495 131.511 51.0395C131.001 51.0295 130.501 50.8595 129.991 50.8295C129.481 50.7995 128.961 50.8195 128.461 50.7795C127.961 50.7395 127.431 50.7495 126.941 50.6995C126.421 50.6495 125.891 50.6995 125.411 50.6595C124.391 50.5095 124.011 50.2795 123.391 50.2795C123.101 50.2795 123.021 50.3995 122.641 50.5795C122.531 50.6895 122.251 50.8495 122.131 51.4995C122.021 52.1395 122.031 52.5195 121.971 53.5395C121.921 53.9895 121.831 54.4895 121.801 55.0295C121.771 55.5095 122.001 56.0195 121.981 56.5295C121.961 57.0395 121.721 57.5195 121.711 58.0195C121.701 58.5195 121.831 59.0295 121.821 59.5195C121.821 60.0395 121.801 60.5495 121.801 61.0095C121.801 61.5595 121.801 62.0695 121.801 62.4995C121.811 63.4095 121.711 63.2495 121.791 63.9895C121.881 64.4995 121.981 65.0195 122.071 65.5495C122.161 66.0795 122.131 66.5995 122.191 67.1295C122.251 67.6595 122.421 68.1595 122.461 68.6895C122.501 69.2195 122.481 69.7395 122.481 70.2695C122.481 70.7995 122.591 71.3295 122.541 71.8595C122.491 72.3895 122.381 72.9095 122.281 73.4295C122.181 73.9495 122.011 74.4495 121.851 74.9595C121.691 75.4695 121.621 76.0095 121.401 76.4995C121.101 77.0895 121.021 77.0195 120.641 77.6095C120.391 77.9895 120.091 78.3995 119.831 78.6695C119.511 79.0195 118.971 79.3295 118.451 79.6695C117.981 79.9695 117.521 80.1195 116.911 80.0595C116.411 80.0095 115.641 80.0395 114.961 79.7295C114.281 79.4195 113.681 78.9995 113.351 78.5395C113.031 78.0995 112.971 77.5095 112.791 77.0195C112.581 76.4795 112.231 75.9995 112.171 75.5195C112.111 74.6495 112.171 74.6795 112.171 73.7695C112.171 73.1395 112.171 72.4595 112.211 72.0095C112.281 71.4395 112.381 70.9495 112.451 70.4895C112.521 69.9695 112.491 69.4795 112.531 68.9595C112.571 68.4595 112.711 67.9695 112.731 67.4695C112.751 66.9695 112.881 66.4695 112.881 65.9695C112.881 65.4695 112.861 64.9695 112.841 64.4595C112.821 63.9495 112.561 63.4795 112.521 62.9795C112.451 62.1895 112.661 62.3095 112.601 61.3895C112.571 60.9195 112.621 60.3695 112.601 59.8095C112.571 59.2795 112.301 58.7495 112.291 58.2295C112.281 57.6495 112.291 57.0895 112.301 56.6395C112.351 55.8995 112.311 55.9195 112.381 55.1495C112.431 54.5995 112.591 54.0395 112.631 53.6695C112.671 53.2295 112.701 52.8295 112.721 52.4395C112.741 52.0095 112.741 51.6095 112.701 51.2195C112.641 50.7495 112.751 50.1995 112.701 49.6295C112.661 49.1295 112.401 48.6095 112.381 48.0595C112.351 47.5395 112.421 47.0095 112.411 46.4695C112.401 45.9295 112.311 45.4095 112.301 44.8795C112.291 44.3495 112.281 43.7995 112.281 43.2895C112.281 42.7295 112.321 42.1995 112.321 41.6995C112.321 41.1095 112.491 40.5695 112.491 40.1195C112.491 39.1495 112.491 39.3295 112.531 38.5395C112.591 37.9895 112.621 37.4495 112.661 36.9095C112.701 36.3695 112.601 35.8095 112.631 35.2595C112.661 34.7095 112.821 34.1795 112.851 33.6295C112.881 33.0795 112.731 32.5295 112.751 31.9795C112.771 31.4295 112.981 30.8995 112.991 30.3495C113.001 29.7995 112.971 29.2595 112.991 28.7095C113.011 28.1595 112.901 27.6195 112.921 27.0695C112.921 26.6795 113.091 26.1895 113.091 25.6295C113.091 25.1795 113.141 24.6995 113.161 24.1995C113.181 23.7295 113.161 23.2495 113.211 22.7695C113.261 22.2895 113.331 21.8195 113.431 21.3495C113.521 20.9095 113.661 20.4495 113.831 19.9695C113.991 19.5195 114.081 19.0395 114.331 18.6095C114.581 18.1795 114.781 17.7095 115.131 17.3695C115.481 17.0295 115.981 16.9195 116.441 16.7095C116.851 16.5195 117.291 16.4195 117.811 16.3595C118.611 16.3295 118.581 16.2295 119.401 16.2695C119.991 16.2895 120.611 16.3295 121.001 16.3795C121.391 16.4295 121.851 16.5795 122.281 16.6195C122.971 16.6895 122.921 16.7595 123.571 16.7995C124.101 16.8195 124.631 16.8395 125.161 16.8495C125.691 16.8595 126.221 16.6495 126.751 16.6495C127.281 16.6495 127.811 16.7395 128.341 16.7195C128.871 16.6995 129.401 16.6995 129.931 16.6595C130.491 16.6195 131.031 16.4395 131.581 16.4195C132.131 16.3995 132.701 16.6095 133.251 16.5995C133.801 16.5895 134.361 16.4695 134.911 16.4695C135.461 16.4695 136.031 16.3495 136.581 16.3595C137.111 16.3595 137.631 16.6495 138.151 16.6595C138.671 16.6695 139.211 16.3695 139.731 16.3695C140.251 16.3695 140.781 16.4495 141.301 16.4395C141.821 16.4295 142.331 16.3395 142.861 16.3095C143.121 16.2695 143.131 16.3295 143.381 16.3095H143.361Z" fill="white"/>
<path d="M92.6506 19.0094C92.8706 18.4394 93.0406 17.8494 93.4106 17.4694C93.8206 17.0494 94.4306 16.9194 94.9506 16.7094C95.4706 16.4994 96.0106 16.3994 96.5806 16.3994C97.1506 16.3994 97.6806 16.4794 98.2206 16.6594C98.7606 16.8394 99.2006 17.1294 99.6406 17.4894C99.6406 17.4894 100.041 17.9894 100.471 18.7494C100.711 19.1794 101.201 19.5494 101.421 20.0194C101.671 20.5594 101.671 21.1594 101.721 21.5594C101.801 22.2094 101.791 22.8594 101.781 23.4794C101.781 24.1994 101.801 24.8594 101.751 25.3994C101.731 25.9094 101.771 26.4294 101.771 26.9494C101.771 27.4694 101.731 27.9794 101.741 28.5094C101.751 29.0394 101.711 29.5394 101.741 30.0694C101.761 30.8394 101.821 30.7094 101.831 31.5994C101.831 32.0594 101.771 32.5994 101.781 33.1394C101.791 33.6794 101.971 34.1894 101.971 34.6794C101.971 35.2994 101.901 35.8594 101.891 36.2094C101.881 36.5494 101.911 37.0694 101.891 37.6694C101.891 38.1194 101.731 38.6194 101.731 39.1394C101.731 39.6294 101.751 40.1294 101.751 40.6194C101.751 41.1494 101.721 41.6494 101.731 42.0994C101.741 42.7594 101.731 43.2994 101.741 43.5694C101.741 43.6294 101.861 44.1994 101.841 45.0794C101.841 45.5194 101.661 46.0294 101.651 46.5994C101.651 47.0794 101.701 47.5894 101.701 48.1194C101.701 48.6094 101.701 49.1194 101.701 49.6394C101.701 50.1594 101.861 50.6494 101.871 51.1594C101.881 51.6694 101.661 52.1994 101.681 52.6894C101.701 53.0394 101.961 53.5394 101.911 54.0994C101.871 54.5394 101.671 55.0094 101.601 55.4794C101.531 55.9494 101.551 56.4594 101.481 56.8794C101.361 57.5494 101.271 58.0794 101.231 58.2594C101.191 58.4194 101.131 59.0594 101.001 59.9294C100.921 60.4294 100.791 60.9894 100.691 61.5894C100.601 62.1394 100.441 62.6994 100.351 63.2494C100.251 63.8394 99.9906 64.3794 99.9006 64.8894C99.7606 65.6494 99.7106 66.2494 99.6106 66.5294C99.2406 67.2894 99.3506 67.1294 98.8106 68.0194C98.5606 68.4394 98.1106 68.8394 97.7706 69.3694C97.4806 69.8194 97.1706 70.2894 96.8306 70.7794C96.5206 71.2294 96.2406 71.7294 95.9006 72.1994C95.5606 72.6694 95.2406 73.1194 94.8806 73.5594C94.5206 73.9994 94.1906 74.4794 93.8106 74.8794C93.4106 75.3194 92.9306 75.6294 92.5306 75.9994C92.0806 76.4094 91.7606 76.9294 91.3206 77.1994C90.8806 77.4694 90.3206 77.5594 89.8206 77.7994C89.3606 78.0294 88.9306 78.3894 88.4206 78.5894C87.9106 78.7894 87.4606 79.0494 86.9406 79.2294C86.4206 79.4094 85.8606 79.3094 85.3306 79.4594C84.8006 79.6094 84.3406 79.8694 83.8006 79.9794C83.2606 80.0894 82.7706 80.3194 82.2406 80.3994C81.7106 80.4794 81.1506 80.3094 80.6106 80.3594C80.0706 80.4094 79.5506 80.3994 79.0106 80.4194C78.4706 80.4394 77.9406 80.5394 77.4106 80.5194C76.8806 80.4994 76.3306 80.5394 75.8006 80.4894C75.2706 80.4394 74.7606 80.1794 74.2306 80.0994C73.7006 80.0194 73.1506 80.0594 72.6306 79.9294C72.1106 79.7994 71.6006 79.6294 71.0906 79.4594C70.7206 79.3294 70.2306 79.1594 69.6906 78.9194C69.2606 78.7294 68.7906 78.5194 68.3206 78.2794C67.8506 78.0394 67.3606 77.9294 66.9206 77.6894C66.4506 77.4294 66.0006 77.1794 65.6006 76.9394C65.0706 76.6094 64.7206 76.1794 64.4606 75.9394C64.2606 75.7494 63.8106 75.2694 63.3606 74.7994C62.9106 74.3294 62.3506 73.9394 62.1606 73.7594C61.7506 73.3794 61.5106 72.8394 61.1506 72.4394C60.7906 72.0394 60.3406 71.6794 60.0206 71.2394C59.7006 70.7994 59.4606 70.2894 59.1706 69.8194C58.8806 69.3494 58.5806 68.8894 58.3306 68.3994C58.0806 67.9094 57.7906 67.4394 57.5806 66.9294C57.3706 66.4194 57.2306 65.8894 57.0506 65.3594C56.8706 64.8294 56.7106 64.3194 56.5606 63.7794C56.4106 63.2394 56.3206 62.7094 56.2106 62.1694C56.1006 61.6294 55.9106 61.0994 55.8206 60.5594C55.7306 60.0194 55.6606 59.4694 55.6006 58.9194C55.6006 58.9194 55.7506 58.8994 55.7506 58.8894C55.7506 58.8794 55.6306 58.8894 55.6306 58.8894C55.5906 58.3694 55.7006 57.8494 55.6606 57.3294C55.6206 56.8094 55.3906 56.3094 55.3606 55.7894C55.3306 55.2694 55.4706 54.7494 55.4406 54.2294C55.4106 53.7094 55.3806 53.1994 55.3506 52.6794C55.3206 52.1594 55.3206 51.6394 55.3006 51.1294C55.2806 50.6194 55.1706 50.0994 55.1506 49.5794C55.1306 49.0594 55.0706 48.5494 55.0606 48.0294C55.0506 47.5094 54.9506 46.9994 54.9406 46.4794C54.9306 45.9594 55.1406 45.4394 55.1306 44.9194C55.1206 44.3994 55.0306 43.8894 55.0206 43.3694C55.0106 42.8494 54.8306 42.3394 54.8206 41.8194C54.8106 41.2994 55.0506 40.7794 55.0406 40.2594C55.0406 40.2294 54.8406 40.2394 54.8406 40.2094C54.8406 40.1794 55.0206 40.1894 55.0306 40.1594C55.0506 39.6394 55.0806 39.1194 55.0906 38.6094C55.1006 38.0994 54.8906 37.5694 54.9006 37.0494C54.9106 36.5294 54.9306 36.0194 54.9306 35.4994C54.9306 34.9794 54.8506 34.4694 54.8506 33.9494C54.8506 33.4294 54.8506 32.9094 54.8506 32.3994C54.8506 31.8794 54.8706 31.3594 54.8706 30.8394C54.8706 30.3194 54.8706 29.7994 54.8906 29.2794C54.9106 28.7594 54.8906 28.2394 54.9006 27.7194C54.9106 27.1994 55.1906 26.6894 55.2106 26.1594C55.2306 25.6294 55.2706 25.1194 55.3006 24.5994C55.3206 24.1494 55.1306 23.6294 55.2106 23.1094C55.2806 22.6394 55.5506 22.1894 55.6906 21.6894C55.8306 21.1894 55.9306 20.7494 56.1406 20.2894C56.3506 19.8294 56.5106 19.3794 56.8106 18.9694C57.1106 18.5594 57.5306 18.3394 57.9206 18.0094C58.4206 17.6894 58.8006 17.3294 59.2606 17.1894C59.8206 17.0294 60.3606 16.9294 60.8506 16.9694C61.4106 17.0194 61.8806 17.3194 62.3306 17.5394C62.8406 17.7894 63.2506 18.1094 63.6006 18.4494C64.0706 18.9094 64.3306 19.3694 64.4706 19.7094C64.5206 19.8294 64.6506 19.7794 64.7006 19.8894C64.7006 19.8894 64.7406 19.8894 64.7506 19.8894C64.7606 19.8894 64.5606 19.9594 64.5606 19.9694C64.7106 20.4094 64.9206 20.8294 65.0206 21.2894C65.1206 21.7494 65.3206 22.1994 65.3806 22.6594C65.4406 23.1194 65.4406 23.6094 65.4706 24.0694C65.5106 24.5594 65.5406 25.0294 65.5606 25.4694C65.5906 26.2794 65.5906 26.1294 65.6106 27.0994C65.6206 27.5794 65.5106 28.1394 65.5206 28.7294C65.5206 29.2594 65.5106 29.8094 65.5006 30.3594C65.4906 30.9094 65.5806 31.4794 65.5606 31.9894C65.5406 32.6094 65.5706 33.1794 65.5206 33.6094C65.4706 34.3594 65.4306 34.2194 65.4206 35.1094C65.4206 35.5594 65.3706 36.0794 65.3706 36.6094C65.3706 37.1094 65.4906 37.6194 65.5006 38.1194C65.5006 38.6594 65.5506 39.1694 65.5706 39.6194C65.5806 39.9394 65.4606 40.5194 65.4406 41.1894C65.4406 41.6794 65.4406 42.2194 65.4406 42.7594C65.4406 43.2994 65.5106 43.8494 65.5006 44.3394C65.4906 45.0394 65.4506 45.6194 65.4606 45.9094C65.4606 46.6694 65.3506 46.4894 65.3406 47.4394C65.3406 47.8794 65.3406 48.3894 65.3406 48.9594C65.3406 49.4294 65.2006 49.9494 65.2106 50.4894C65.2106 50.9794 65.4706 51.4894 65.4806 52.0094C65.4906 52.5294 65.3006 53.0294 65.3206 53.5394C65.3406 54.0494 65.4606 54.5594 65.4906 55.0594C65.5206 55.5594 65.7306 56.0794 65.7706 56.5694C65.8106 57.0994 65.6206 57.6294 65.6806 58.1194C65.7506 58.6594 65.9706 59.1494 66.0606 59.5994C66.1706 60.1494 66.2406 60.7094 66.3906 61.2394C66.5406 61.7694 66.8706 62.2594 67.0706 62.7794C67.2706 63.2994 67.3806 63.8694 67.6106 64.3594C67.8606 64.8794 68.0806 65.3994 68.3406 65.8694C68.6406 66.3994 69.0606 66.8294 69.4006 67.2894C69.7706 67.7894 70.1606 68.2094 70.5706 68.5894C71.0306 69.0194 71.4106 69.4994 71.8906 69.7594C72.3406 69.9894 72.8206 70.1794 73.3106 70.3294C73.8006 70.4794 74.3206 70.4494 74.8306 70.5294C75.3406 70.6094 75.8206 70.6394 76.3406 70.6694C76.8606 70.6994 77.3406 70.6794 77.8606 70.6594C78.3806 70.6394 78.8606 70.5794 79.3706 70.5094C79.8806 70.4394 80.4206 70.5894 80.9206 70.4894C81.4206 70.3894 81.8806 70.1094 82.3706 69.9794C82.8606 69.8494 83.3606 69.7194 83.8406 69.5594C84.3806 69.3694 84.9206 69.2394 85.3906 68.9694C85.8606 68.6994 86.3206 68.3494 86.7306 67.9894C87.1406 67.6294 87.6006 67.2794 87.9506 66.8394C88.3006 66.3994 88.5006 65.8694 88.7706 65.3894C89.0406 64.9094 89.4006 64.4694 89.6206 63.9494C89.8406 63.4294 90.0006 62.9094 90.1606 62.3694C90.3206 61.8294 90.3806 61.2894 90.4906 60.7394C90.6406 59.8994 90.6106 60.0394 90.7506 59.0494C90.8206 58.5394 90.7106 57.9294 90.8006 57.3294C90.8706 56.7694 91.0706 56.1994 91.1306 55.6394C91.2006 55.0194 91.2506 54.4294 91.2906 53.9294C91.3306 53.3394 91.2906 52.7394 91.3206 52.1294C91.3506 51.5194 91.3606 50.9294 91.4006 50.3294C91.4406 49.7294 91.4806 49.1294 91.5206 48.5294C91.5606 47.9294 91.7206 47.3394 91.7806 46.7394C91.8106 46.4094 91.9206 45.7794 91.8906 45.0294C91.8706 44.4994 91.9106 43.9094 91.8806 43.3194C91.8506 42.7294 91.6406 42.1494 91.6006 41.6194C91.5606 40.8894 91.5006 40.2794 91.4806 39.9194C91.4606 39.6094 91.3706 39.0794 91.3706 38.4594C91.3706 38.0094 91.4706 37.5094 91.4906 36.9994C91.5006 36.5194 91.4006 36.0094 91.4106 35.5294C91.4206 35.0094 91.5706 34.5094 91.5806 34.0694C91.5906 33.4194 91.6306 32.8994 91.6206 32.6094C91.5906 32.2494 91.7506 31.6494 91.7906 30.9294C91.8206 30.3994 91.6006 29.7994 91.6406 29.2194C91.6806 28.6394 91.9506 28.0594 91.9806 27.5394C92.0306 26.7794 91.9106 26.1494 91.9106 25.8394C91.9006 25.5794 91.8106 24.9194 91.8306 24.0994C91.8406 23.5694 92.0106 22.9694 92.0506 22.3694C92.0906 21.7694 92.0406 21.1594 92.1006 20.6294C92.1806 19.8894 92.4406 19.2994 92.5806 18.9794L92.6506 19.0094Z" fill="white"/>
<path d="M13.2902 22.7402C13.6702 23.4402 13.5202 23.2902 14.0002 24.1702C14.2102 24.5702 14.4602 25.0502 14.7402 25.5802C14.9702 26.0102 15.2102 26.4902 15.4802 26.9902C15.7202 27.4302 16.1602 27.8002 16.4202 28.2902C16.6602 28.7402 16.7502 29.3002 17.0002 29.7802C17.2502 30.2602 17.7102 30.6002 17.9602 31.0802C18.2102 31.5602 18.3602 32.0702 18.6202 32.5402C18.8802 33.0102 19.2402 33.4202 19.4902 33.8902C19.7402 34.3602 19.9802 34.8402 20.2302 35.3102C20.4802 35.7802 20.7402 36.2602 20.9802 36.7302C21.2402 37.2202 21.4102 37.7302 21.6502 38.1902C21.9102 38.6902 22.0002 39.2402 22.2302 39.6902C22.5002 40.2002 22.8302 40.6302 23.0502 41.0602C23.3402 41.6202 23.7102 42.0402 23.8902 42.4102C24.1102 42.8202 24.1402 43.3702 24.3902 43.8102C24.6302 44.2202 24.9102 44.6302 25.1602 45.0602C25.4102 45.4902 25.7402 45.8502 25.9802 46.2802C26.2202 46.7102 26.4802 47.1202 26.7102 47.5602C26.9402 48.0002 27.1802 48.4202 27.3902 48.8702C27.5902 49.3102 27.8702 49.7102 28.0702 50.1502C28.2702 50.5902 28.4102 51.0602 28.6102 51.5002C28.8102 51.9402 28.9202 52.4102 29.1202 52.8502C29.3402 53.3402 29.4702 53.8702 29.6902 54.3602C29.9102 54.8502 30.3902 55.2202 30.6102 55.7102C30.8602 56.2502 30.7002 56.3202 30.9302 56.8702C31.1202 57.3602 31.4802 57.7802 31.7702 58.2702C32.0302 58.7202 32.1402 59.2802 32.4502 59.7702C32.8902 60.5202 33.1902 60.9402 33.3202 61.1602C33.4002 60.6402 33.6002 60.0402 33.6402 59.4202C33.6902 58.4602 33.7302 58.5202 33.7602 57.6102C33.7902 57.1102 33.8102 56.6002 33.8302 56.1002C33.8502 55.6002 33.9202 55.0902 33.9302 54.5902C33.9402 54.0902 33.7902 53.5802 33.7902 53.0802C33.7902 52.5802 33.7602 52.0702 33.7702 51.5602C33.7802 51.0502 33.8002 50.5502 33.8002 50.0402C33.8202 49.3202 33.9302 49.4202 33.9802 48.6102C34.0102 48.1602 34.0602 47.6502 34.0902 47.1702C34.1202 46.6202 34.1002 46.1002 34.1202 45.7302C34.1602 45.0702 34.0802 44.4302 34.0802 43.8002C34.0802 43.1702 33.9602 42.5302 33.8802 41.8902C33.8102 41.3802 33.8102 40.8502 33.7602 40.3402C33.7102 39.8302 33.6702 39.3102 33.6302 38.7902C33.5902 38.2702 33.6302 37.7502 33.5902 37.2302C33.5502 36.7102 33.4702 36.2002 33.4502 35.6802C33.4302 35.1602 33.3402 34.6402 33.3402 34.1202C33.3402 33.6002 33.6102 33.0802 33.6202 32.5702C33.6302 32.0602 33.5002 31.5302 33.5102 31.0102C33.5202 30.4902 33.4902 29.9702 33.5102 29.4502C33.5302 28.9302 33.6402 28.4102 33.6602 27.9002C33.6802 27.3902 33.7402 26.8702 33.7702 26.3502C33.8002 25.8302 33.7102 25.3102 33.7402 24.7902C33.7602 24.4002 33.9902 23.8302 34.0302 23.1502C34.0602 22.6402 33.9202 22.0602 34.0002 21.4902C34.0802 20.9202 34.1602 20.3802 34.3102 19.8602C34.4502 19.3902 34.6402 18.8602 34.9202 18.3802C35.1802 17.9402 35.5202 17.5002 35.9502 17.1502C36.3502 16.8202 37.0602 16.5602 37.7202 16.4702C38.6602 16.3502 39.5702 16.5802 39.5802 16.5802C40.2402 16.7402 40.7002 17.0802 41.1202 17.4602C41.5902 17.8802 41.8802 18.3802 42.1302 18.9102C42.4102 19.5102 42.7602 20.0702 42.8602 20.5802C42.9402 21.0202 42.9502 21.4902 42.9902 21.9302C43.0302 22.4002 43.1702 22.8602 43.1802 23.2802C43.1802 23.8202 42.9702 24.2902 42.9702 24.6302C42.9702 25.1602 42.9302 25.7002 42.9402 26.2302C42.9502 26.7602 43.0602 27.2902 43.0702 27.8302C43.0802 28.3702 42.9802 28.8902 42.9802 29.4302C42.9802 29.9702 42.9902 30.5002 43.0002 31.0302C43.0102 31.5602 43.0002 32.1002 43.0002 32.6302C43.0002 33.1602 43.2602 33.6902 43.2702 34.2302C43.2802 34.7702 43.0402 35.3002 43.0502 35.8402C43.0602 36.3802 43.2602 36.9102 43.2702 37.4402C43.2802 37.9702 43.3202 38.5102 43.3202 39.0502C43.3202 39.5902 43.3602 40.1202 43.3602 40.6602C43.3602 41.2002 43.2802 41.7302 43.2802 42.2702C43.2802 42.8102 43.3502 43.3402 43.3402 43.8702C43.3402 44.4102 43.2202 44.9402 43.2202 45.4702C43.2202 46.0002 43.3202 46.5402 43.3102 47.0702C43.3002 47.6002 43.1902 48.1302 43.1902 48.6602C43.1902 49.1902 43.0502 49.7202 43.0502 50.2502C43.0502 50.7802 43.2702 51.3102 43.2802 51.8402C43.2902 52.3702 43.1702 52.9002 43.1902 53.4402C43.2302 53.9502 43.4202 54.5302 43.4402 55.1602C43.4602 55.7102 43.1602 56.3002 43.1602 56.9002C43.1602 57.5002 43.4302 58.0602 43.4302 58.6402C43.4302 59.2202 43.4602 59.8302 43.4502 60.3802C43.4402 61.0202 43.4102 61.6102 43.4002 62.1202C43.3702 63.1702 43.1602 62.9802 43.1202 63.8402C43.0902 64.3202 43.2302 64.8202 43.2202 65.3402C43.2102 65.8302 42.9802 66.3202 42.9702 66.8302C42.9602 67.3402 43.1502 67.8202 43.1402 68.3302C43.1302 68.8402 42.9802 69.3202 42.9602 69.8202C42.9402 70.3202 42.9102 70.8102 42.8702 71.3102C42.8302 71.8102 42.9602 72.3202 42.9002 72.8202C42.8402 73.3202 42.5602 73.7802 42.4702 74.2702C42.3702 74.8302 42.3802 75.3802 42.1902 75.8502C41.9802 76.3602 41.7802 76.8902 41.4702 77.3002C41.1602 77.7102 40.6502 78.0102 40.2302 78.3402C39.8302 78.6602 39.3202 78.9602 38.7902 79.3002C38.3202 79.6002 37.8602 80.0202 37.3002 80.2002C36.7702 80.3702 36.1702 80.3102 35.5602 80.2702C35.0302 80.2402 34.5102 80.2702 34.0502 80.1002C33.5902 79.9302 33.0902 79.7002 32.6802 79.4102C32.2702 79.1202 32.0102 78.6402 31.6602 78.2802C31.3102 77.9202 30.8602 77.6302 30.5602 77.2202C30.2602 76.8102 29.9602 76.3802 29.7102 75.9602C29.4502 75.5102 29.1802 75.0602 28.9702 74.6302C28.6602 74.0202 28.9702 73.9602 28.6102 73.2702C28.4102 72.8902 28.1002 72.5102 27.8802 72.1002C27.6402 71.6602 27.3402 71.2702 27.1602 70.9302C26.9402 70.5302 26.6702 70.1402 26.4502 69.7202C26.2302 69.3002 26.1402 68.8202 25.9302 68.4002C25.7202 67.9802 25.5502 67.5502 25.3502 67.1202C25.1302 66.6502 24.7402 66.2702 24.5202 65.8002C24.3002 65.3302 24.1102 64.8602 23.8902 64.3902C23.6702 63.9202 23.5302 63.4202 23.3102 62.9602C23.0902 62.5002 22.8602 62.0302 22.6402 61.5702C22.4202 61.1102 22.0502 60.7102 21.8202 60.2502C21.5902 59.7902 21.3502 59.3402 21.1302 58.8802C20.9102 58.4202 20.6802 57.9602 20.4502 57.5002C20.2202 57.0402 20.2302 56.4602 19.9902 56.0102C19.7502 55.5602 19.3802 55.1702 19.1402 54.7202C18.9002 54.2702 18.5902 53.8502 18.3402 53.4002C18.0902 52.9502 17.9702 52.4402 17.7202 51.9902C17.3302 51.2902 17.4602 51.4102 16.9902 50.5602C16.7602 50.1502 16.5502 49.6502 16.2702 49.1302C16.0202 48.6802 15.7602 48.2102 15.5002 47.7302C15.2402 47.2502 14.8302 46.8702 14.5802 46.4002C14.3302 45.9302 14.0702 45.4302 13.8402 44.9802C13.5702 44.4602 13.3402 43.9602 13.1302 43.5502C12.8902 43.0902 12.7402 42.3202 12.4702 41.6602C12.3202 41.2902 11.9402 41.0102 11.7702 40.6302C11.6002 40.2502 11.5402 39.8302 11.3602 39.4702C11.0102 38.7702 10.5602 38.2902 10.2402 37.8902C10.2302 37.9402 10.1102 38.5002 9.99023 39.3802C9.92023 39.8702 9.87024 40.4402 9.81024 40.9902C9.75024 41.5402 9.85023 42.1302 9.83023 42.6102C9.81023 43.1802 9.83023 43.7502 9.82023 44.3102C9.81023 44.8702 9.85023 45.4602 9.85023 46.0102C9.85023 46.6002 9.78023 47.1702 9.79023 47.7002C9.81023 48.3202 9.78023 48.8902 9.79023 49.4002C9.81023 50.1302 9.99023 50.7202 9.99023 51.0902C9.99023 51.6202 9.89023 52.1602 9.90023 52.7002C9.91023 53.2402 9.70023 53.7702 9.71023 54.3102C9.72023 54.8502 9.75023 55.3802 9.76023 55.9202C9.77023 56.4602 9.78023 56.9902 9.79023 57.5302C9.80023 58.0702 10.1102 58.5902 10.1202 59.1302C10.1302 59.6702 10.1302 60.2002 10.1502 60.7402C10.1702 61.2802 10.0202 61.8202 10.0302 62.3502C10.0402 62.8802 10.0902 63.4202 10.0902 63.9602C10.0902 64.5002 10.0102 65.0402 10.0102 65.5702C10.0102 66.1002 10.1602 66.6502 10.1502 67.1802C10.1402 67.7102 10.1802 68.2502 10.1502 68.7902C10.1502 69.5602 10.0602 69.4402 10.0902 70.3202C10.1102 70.7902 10.1102 71.3202 10.1202 71.8602C10.1402 72.3502 10.1602 72.8802 10.1602 73.4302C10.1602 73.9502 10.2302 74.4802 10.2002 75.0102C10.1702 75.5402 10.1302 76.0802 10.0702 76.5902C9.97023 77.3602 9.56024 78.0802 9.31024 78.7802C9.18024 79.1302 9.05023 79.4902 8.82023 79.8502C8.61023 80.1802 8.38023 80.4602 8.05023 80.7202C7.67023 81.0202 7.31023 81.2302 6.85023 81.3302C6.39023 81.4302 5.96023 81.5102 5.48023 81.4102C5.11023 81.3302 4.53023 81.2202 4.06023 80.9502C3.40023 80.5802 3.56023 80.3802 2.97023 79.9402C2.60023 79.6302 2.17023 79.4102 1.90023 79.0302C1.63023 78.6502 1.30023 78.2602 1.11023 77.8402C0.920234 77.4202 0.970234 76.8602 0.840234 76.4302C0.650234 75.8202 0.450234 75.2202 0.350234 74.6102C0.240234 73.9402 0.0302344 73.3102 0.0102344 72.7402C-0.00976562 71.8902 -0.00976562 72.0502 -0.00976562 71.0402C-0.00976562 70.5402 0.110234 69.9602 0.120234 69.3502C0.120234 68.8002 0.180234 68.2302 0.200234 67.6602C0.220234 67.0902 0.220234 66.5102 0.260234 65.9702C0.300234 65.3502 0.300234 64.7702 0.360234 64.2802C0.410234 63.7102 0.510234 63.1402 0.560234 62.5702C0.610234 62.0002 0.750234 61.4402 0.790234 60.8702C0.830234 60.3002 0.560234 59.7102 0.600234 59.1402C0.640234 58.5702 0.800234 58.0102 0.840234 57.4402C0.880234 56.8702 1.01023 56.3002 1.05023 55.7302C1.08023 55.2102 0.870234 54.6802 0.870234 54.1502C0.870234 53.6202 1.06023 53.1002 1.05023 52.5702C1.04023 52.0402 0.930234 51.5302 0.910234 50.9902C0.890234 50.4402 0.930234 49.8702 0.920234 49.3002C0.910234 48.7302 0.830234 48.1702 0.840234 47.6002C0.850234 47.0302 0.890234 46.4702 0.930234 45.9102C0.970234 45.1402 0.980234 45.3302 1.00023 44.3702C1.00023 43.9302 1.15023 43.4102 1.16023 42.8202C1.16023 42.3402 1.11023 41.8202 1.12023 41.2702C1.12023 40.7802 1.20023 40.2602 1.20023 39.7202C1.20023 39.2202 1.01023 38.6902 1.02023 38.1702C1.03023 37.6502 1.00023 37.1402 1.00023 36.6202C1.00023 36.1002 1.22023 35.5802 1.23023 35.0702C1.24023 34.5602 1.22023 34.0202 1.23023 33.5202C1.23023 32.9802 1.23023 32.4602 1.23023 31.9702C1.23023 31.4202 1.29023 30.9002 1.29023 30.4202C1.29023 30.0502 1.05023 29.5102 1.04023 28.8602C1.04023 28.3902 1.15023 27.8602 1.16023 27.3002C1.16023 26.8002 1.13023 26.2802 1.16023 25.7402C1.19023 25.2002 1.22023 24.7002 1.28023 24.1802C1.34023 23.6602 1.41023 23.1402 1.51023 22.6302C1.60023 22.1402 1.68023 21.6202 1.83023 21.1202C1.98023 20.6202 2.18023 20.1502 2.41023 19.6902C2.64023 19.2302 3.03023 18.8802 3.36023 18.4902C3.62023 18.1802 3.76023 17.7102 4.11023 17.4702C4.46023 17.2302 4.91023 17.2302 5.32023 17.1002C5.75023 16.9602 6.17023 16.8202 6.62023 16.8202C7.07023 16.8202 7.52023 16.8002 7.97023 16.9102C8.50023 17.0302 9.02023 17.1902 9.45023 17.4402C9.91023 17.7102 10.1602 18.2302 10.5202 18.5802C10.9002 18.9602 11.2502 19.3302 11.5302 19.7202C11.9202 20.2802 12.3402 20.8102 12.6302 21.3302" fill="white"/>
<path d="M177.411 0.279805C176.901 0.339805 176.391 0.449805 175.881 0.499805C175.371 0.549805 174.851 0.549805 174.341 0.589805C173.831 0.629805 173.321 0.739805 172.801 0.779805C172.281 0.819805 171.771 0.839805 171.251 0.879805C170.691 0.919805 170.121 0.829805 169.551 0.819805C168.981 0.809805 168.431 0.779805 167.851 0.759805C167.401 0.739805 166.941 0.719805 166.471 0.719805C166.001 0.719805 165.551 0.719805 165.091 0.729805C164.581 0.759805 164.061 0.839805 163.551 0.869805C163.161 0.879805 162.571 0.739805 161.901 0.749805C161.391 0.749805 160.821 0.849805 160.251 0.909805C159.681 0.969805 159.151 1.07981 158.631 1.20981C158.171 1.32981 157.681 1.5398 157.201 1.7898C156.751 2.0198 156.241 2.2198 155.881 2.6098C155.531 2.9998 155.431 3.6498 155.331 4.2198C155.201 4.9598 155.221 5.6498 155.311 5.8898C155.521 6.4898 155.851 6.92981 156.251 7.31981C156.681 7.73981 157.121 8.13981 157.641 8.36981C158.221 8.61981 158.821 8.79981 159.321 8.87981C159.761 8.95981 160.241 8.84981 160.691 8.87981C161.161 8.90981 161.621 9.07981 162.041 9.07981C162.581 9.07981 163.061 9.05981 163.391 9.05981C163.951 9.05981 164.521 8.92981 165.081 8.92981C165.611 8.93981 166.151 8.96981 166.631 8.95981C167.311 8.93981 167.881 8.92981 168.171 8.92981C168.641 8.92981 169.171 8.98981 169.731 8.98981C170.221 8.98981 170.751 8.97981 171.291 8.96981C171.801 8.96981 172.321 8.93981 172.851 8.93981C173.381 8.93981 173.901 8.86981 174.411 8.85981C174.921 8.84981 175.471 8.85981 175.971 8.84981C176.521 8.84981 177.051 8.95981 177.541 8.94981C178.121 8.94981 178.651 8.76981 179.101 8.75981C180.061 8.74981 179.881 8.77981 180.661 8.75981C181.021 8.73981 181.761 8.82981 182.881 8.87981C183.411 8.89981 183.991 8.97981 184.581 8.95981C185.171 8.93981 185.731 8.86981 186.271 8.78981C186.831 8.70981 187.391 8.56981 187.891 8.33981C188.381 8.11981 188.931 7.7898 189.331 7.1798C189.551 6.8398 189.761 6.4698 189.831 6.0598C189.901 5.6498 189.791 5.25981 189.721 4.83981C189.671 4.51981 189.551 4.05981 189.361 3.64981C189.091 3.05981 189.111 3.0798 188.721 2.5998C188.211 1.9698 188.201 2.0198 187.541 1.4998C187.071 1.1298 186.551 0.779805 186.181 0.639805C185.741 0.479805 185.321 0.249805 184.881 0.159805C184.401 0.069805 183.921 0.159805 183.501 0.139805C182.741 0.109805 182.871 -0.020195 181.981 -0.010195C181.521 -0.010195 181.001 0.079805 180.461 0.099805C179.951 0.109805 179.431 0.149805 178.931 0.179805C178.371 0.219805 177.841 0.199805 177.401 0.269805L177.411 0.279805Z" fill="white"/>
<path d="M134.239 61.9602C134.519 61.9002 134.919 61.8302 135.399 61.8502C135.879 61.8702 136.449 61.9902 137.039 62.2702C137.619 62.5502 138.089 62.9302 138.439 63.3702C138.939 63.9902 139.219 64.7202 139.329 65.4102C139.389 65.7802 139.409 66.1502 139.399 66.4902C139.379 67.0902 139.259 67.6302 139.069 68.0402C138.849 68.5202 138.539 68.9102 138.169 69.2402C137.799 69.5702 137.349 69.8302 136.869 69.9902C136.469 70.1202 136.059 70.2002 135.619 70.1902C135.209 70.1902 134.789 70.1102 134.369 69.9702C133.799 69.7802 133.469 69.7802 132.999 69.4702C132.479 69.1202 131.969 68.7302 131.579 68.2802C131.059 67.6802 130.749 66.9602 130.749 66.0902C130.749 66.0902 130.719 65.8802 130.739 65.6502C130.759 65.3902 130.839 65.0302 130.999 64.6202C131.149 64.2102 131.359 63.8602 131.589 63.5602C131.879 63.1902 132.209 62.8902 132.529 62.6702C132.659 62.5902 132.779 62.5002 132.919 62.4202C133.329 62.2002 133.779 62.0602 134.229 61.9602H134.239Z" fill="white"/>
</g>
<defs>
<clipPath id="clip0_683_14031">
<rect width="244.16" height="81.46" fill="white"/>
</clipPath>
</defs>
</svg>
