<?xml version="1.0" encoding="UTF-8"?>
<svg id="Layer_2" data-name="Layer 2" xmlns="http://www.w3.org/2000/svg" viewBox="0 0 244.16 81.46">
  <g id="Layer_1-2" data-name="Layer 1">
    <g>
      <path d="M208.93,16.14c.8,0,.6.2,1.6.2.46,0,.99-.08,1.6-.08.49,0,1.03-.17,1.6-.16.51,0,1.04.03,1.6.04.52,0,1.05.13,1.6.15s1.06-.11,1.6-.09,1.06.17,1.59.19,1.08-.11,1.61-.09,1.06.35,1.58.39,1.09-.05,1.6,0c.55.05,1.1-.08,1.61-.02.56.06,1.08.25,1.57.33.74.18.6.11,1.46.43.41.15.89.35,1.41.55.45.18.84.58,1.32.78s1.05.14,1.51.35.8.72,1.22.95c.48.26,1.07.29,1.45.55.63.52.52.51,1.17,1.16.36.36.75.79,1.11,1.2.41.46.63,1.01.87,1.38.34.53.68,1.09.98,1.65.32.6.66,1.16.94,1.68.12.21.16.19.24.42.25.73,0,.61.16,1.53.07.44.21.95.29,1.51.07.48.27.97.33,1.5.06.5.09,1.02.13,1.54s-.05,1.04-.03,1.54c.02.54.23,1.06.21,1.54-.03.57-.05,1.11-.15,1.55-.11.47-.48.87-.63,1.31s-.15.98-.34,1.4-.57.79-.79,1.2-.43.86-.65,1.26c-.23.4-.35.85-.57,1.22-.23.4-.46.78-.65,1.16s-.44.79-.61,1.19c.33.45.78.81,1.09,1.26s.37,1.08.66,1.54.62.91.88,1.39.72.87.96,1.37.26,1.09.47,1.6.55.97.72,1.5.29,1.07.42,1.6.08,1.1.17,1.65.15,1.08.2,1.63.1,1.08.11,1.64.07,1.09.04,1.65-.02,1.1-.09,1.65c-.06.51-.23,1.02-.41,1.54-.17.48-.46.93-.71,1.42s-.35,1.01-.65,1.46-.7.79-1.03,1.22-.65.83-1,1.23-.61.89-.98,1.26-.91.61-1.28.96c-.4.38-.69.84-1.07,1.18-.42.37-.87.66-1.25.98-.46.38-.88.72-1.24,1-.77.6-.53.63-1.24.98-.48.14-1.06.21-1.67.31-.53.08-1.09.29-1.67.34s-1.14.11-1.7.14-1.17-.23-1.71-.21c-.62.02-1.2.21-1.69.21-1.02,0-.85-.11-1.69-.13-.53-.01-1.06.14-1.59.14s-1.06-.24-1.6-.23-1.05.07-1.59.08c-.55.01-1.11.05-1.68.05s-1.12.14-1.68.14-1.11-.23-1.67-.26c-.71-.03-.72.17-1.43.15s-.7-.2-1.42-.23-.72.1-1.43.09c-.42.03-.95-.05-1.54-.03-.48.02-.98,0-1.52-.09-.48-.08-1.07.02-1.56-.22-.71-.42-.55-.62-1.2-1.17-.46-.38-.95-.76-1.17-1.15-.25-.43-.31-.91-.44-1.36-.13-.48-.48-.91-.52-1.37-.04-.43.13-.87.13-1.29,0-.44.06-.87.08-1.27.05-.82.08-1.07.09-2.15,0-.5-.11-1.09-.11-1.73,0-.55.06-1.14.06-1.73s-.07-1.17-.07-1.73c0-.63,0-1.22,0-1.73,0-1.03-.08-.87,0-1.73.12-1.14.16-1.7.28-2.28.12-.62.47-1.08.45-1.54-.06-.56-.23-1.15-.29-1.77-.06-.58-.03-1.19-.08-1.79s-.06-1.19-.06-1.78c0-.65-.21-.65-.22-1.29s.1-.65.09-1.3c0-.52-.23-1.04-.23-1.56s.23-1.04.23-1.57-.01-1.04-.01-1.56-.14-1.04-.14-1.57.16-1.04.17-1.56.03-1.04.04-1.57-.14-1.05-.13-1.57-.06-1.05-.04-1.57.26-1.03.29-1.56-.02-1.05.01-1.57,0-1.05.05-1.57c.05-.58-.03-.59.02-1.17.06-.65.32-1.3.35-1.96s-.14-1.31-.12-1.99c.01-.38.02-.89.04-1.43.02-.48.19-.97.22-1.42.05-.8-.06-.72.02-1.43.09-.83.15-.72.37-1.63.13-.51.25-1.09.45-1.61.21-.58.55-1.07.85-1.43.31-.38.69-.63,1.08-.88s.74-.6,1.2-.75c.43-.14.93-.05,1.41-.11.45-.05.91-.21,1.4-.2ZM215.27,52.67c-.54.05-1.16-.14-1.68-.05-.6.11-1.14.42-1.42.89-.24.39-.25.94-.37,1.5-.1.47-.18.97-.21,1.52-.03.5-.15,1.02-.14,1.54s.18,1.03.22,1.54-.03,1.07.03,1.55c.07.57.3,1.06.38,1.51.15.92-.05.77-.02,1.55.04,1.09.07,1.47,0,2.16-.08.75.02,1.51,0,2.23-.02.73-.09,1.28.02,1.67.08.27.43.36.74.38.36.02.77.03,1.26-.01.49-.04.99.14,1.5.09.45-.04.91-.38,1.34-.38.44-.02.97.27,1.53.26.5-.01,1.01-.29,1.52-.3.54,0,1.07,0,1.53,0,.89,0,.76,0,1.52.02.54.03,1.12.16,1.7.06.55-.09,1.11-.26,1.65-.43s1.09-.4,1.6-.61c.57-.23,1.1-.48,1.55-.69.91-.44.89-.19,1.57-.69.35-.35.64-.88.88-1.39.22-.46.29-1.02.44-1.54s.3-1.03.4-1.54c.11-.57.31-1.09.37-1.56.12-.93-.06-.8-.06-1.59-.04-.44-.22-.84-.46-1.31-.21-.41-.27-.95-.57-1.35s-.77-.64-1.09-.98c-.36-.39-.58-.87-.9-1.16-.62-.58-.53-.51-1.12-.93-.45-.28-.97-.41-1.45-.61s-.97-.37-1.48-.5-1-.27-1.53-.35-1.04.01-1.57-.04-1-.38-1.54-.42-1.04-.01-1.57-.05c-.76-.06-.68.17-1.54.13-.48-.03-1-.26-1.52-.27-.57-.01-1.11.11-1.52.15ZM214.42,25.89c-.75.17-1.53.54-1.83,1.26-.13.4-.15.9-.2,1.39-.04.42.11.89.12,1.37,0,.43,0,.89.04,1.37.03.44-.05,1.06-.01,1.69.03.57.2,1.16.23,1.69.05.95-.05.85-.04,1.7-.02.75.04,1.56-.02,2.24-.07.72-.42,1.36-.4,1.97.01.52.2.98.32,1.39.14.45.49.72.83,1.06.62.5.66.62,1.35.75.36.07.77.03,1.21.05.38.02.78.03,1.21.02.46-.02.94.18,1.4.14s.9-.38,1.35-.43c.41-.05.86.21,1.26.16.44-.05.83-.36,1.2-.39.57-.05,1.11-.08,1.63-.16.56-.08,1.09-.15,1.6-.28.54-.13,1.12-.12,1.61-.32s.99-.47,1.47-.75.88-.62,1.31-.99c.41-.36.81-.89,1.17-1.52.29-.51.67-1.07.9-1.71.13-.38.2-.87.29-1.35s.03-.95.09-1.37c.1-.77.22-.67.17-1.34-.08-.92-.05-.89-.36-1.82-.2-.6-.64-1.14-.96-1.58-.39-.54-.85-.99-1.33-1.41-.52-.45-.93-1.03-1.49-1.3-.53-.24-1.13-.25-1.65-.43s-1.03-.51-1.58-.64-1.11-.19-1.68-.27-1.12-.03-1.69-.07-1.11-.09-1.69-.11-1.12-.07-1.69-.07c-.34,0-.48.15-.68.14-.39,0-.9-.3-1.43-.31-.53,0-2.03.21-2.05.21Z"/>
      <path d="M171.53,16.31c.51-.02,1.01-.07,1.5.07s.9.41,1.33.71.93.49,1.23.92c.28.39.51.89.68,1.4.16.49.27.99.42,1.48s.26,1,.41,1.48.35.97.5,1.46.29.98.43,1.47c.29.97.08,1.03.37,2,.16.54.49,1.03.65,1.57s.23,1.11.39,1.65.35,1.07.52,1.61.43,1.05.61,1.58.26,1.1.44,1.63.35,1.08.55,1.6c.14.36.1.38.24.74.19.5.36,1,.53,1.5s.46.97.62,1.48.31,1.02.46,1.53.29,1.03.43,1.54.2,1.05.34,1.57.29,1.02.43,1.54.41.99.55,1.5c.15.53.08,1.13.26,1.65s.5.99.7,1.51.32,1.06.53,1.57.68.9.91,1.4.38,1.03.62,1.53.43,1.01.66,1.51c.31.67.42.62.72,1.3s.2.56.5,1.34c.15.4.17.92.34,1.39.17.45.45.87.61,1.3.18.5.34.97.46,1.35.19.58.25,1.19.43,1.76s.53,1.09.72,1.65.35,1.15.57,1.7c.27.73.16.63.42,1.5.14.45.38.94.52,1.48.13.5.11,1.06.19,1.56.1.56.07,1.09.06,1.54-.01.56.2,1.2.03,1.77-.15.54-.67.95-1.02,1.44-.39.54-.84.95-1.42,1.3-.54.32-1.09.7-1.79.85-.32.04-.33.08-.65.05-.67-.12-1.24-.37-1.76-.6-.6-.27-1.02-.7-1.46-1.09-.47-.42-.94-.8-1.27-1.32-.42-.65-.81-1.32-1.1-1.94-.3-.64-.66-1.17-1-1.73-.34-.55-.61-.99-1.01-1.61-.37-.57-.74-1.24-1.06-1.98-.26-.73-.05-.76-.25-1.54-.14-.55-.3-1.12-.37-1.5-.08-.45-.06-.88-.14-1.27-.09-.43-.45-.77-.56-1.17-.34-1.01-.68-1.28-1.13-1.46-.4-.16-.83-.3-1.45-.38-.42-.05-.92,0-1.53-.07-.43-.02-.86-.09-1.3-.13s-.88-.03-1.31-.08c-.44-.05-.88-.11-1.31-.16s-.85-.32-1.29-.35c-.52-.04-1.03-.04-1.51-.04-.53,0-1.02.11-1.49.17-.52.07-1.03.11-1.48.27-.56.29-.51.33-.99.78-.31.29-.72.59-.89.93-.24.49-.27,1.1-.43,1.69-.15.53-.4,1.06-.53,1.65-.11.6-.15,1.2-.26,1.79s-.18,1.19-.29,1.78-.29,1.17-.41,1.75c-.1.62-.28,1.19-.5,1.73-.23.58-.44,1.16-.73,1.66-.32.56-.7,1.04-.98,1.52-.48.66-.35.67-1.01,1.31-.37.36-.87.68-1.31,1.01-.48.36-.99.71-1.44.83-.43.12-.91.23-1.38.21-.44-.02-.87-.26-1.32-.43-.47-.18-.91-.41-1.3-.73s-.63-.73-.93-1.15c-.36-.71-.35-.58-.61-1.46-.14-.46-.2-1.01-.33-1.56s-.27-1.05-.34-1.56c-.08-.59-.19-1.15-.13-1.6.05-.42.3-.89.43-1.39.12-.46.09-.99.24-1.44.17-.49.45-.92.61-1.33.3-.79.4-.61.71-1.26.25-.48.48-.97.72-1.46s.43-1,.65-1.5.4-1.01.61-1.51.43-1,.63-1.51.22-1.07.41-1.59.41-1.01.58-1.52.28-1.05.44-1.57.46-1,.61-1.52.14-1.09.29-1.61.35-1.03.49-1.55.42-1.01.55-1.54.1-1.1.23-1.63c.13-.52.31-1.04.46-1.56s.48-.99.64-1.51.2-1.08.36-1.59c.16-.51.15-1.07.3-1.57s.53-.95.67-1.45.32-1.01.45-1.52c.11-.46.02-1.04.19-1.57.14-.48.29-.99.46-1.5s.42-.96.59-1.46.29-1.02.46-1.5c.19-.51.59-.93.77-1.39.21-.54.43-1.02.6-1.44.35-.89.31-.72.6-1.44.17-.44.34-1.01.54-1.58.19-.53.34-1.1.5-1.59.3-.89.09-.84.34-1.63.21-.67.5-1.35.64-2.31.05-.36.03-.98.18-1.55.2-.78.13-.78.38-1.52.19-.47.41-.94.7-1.31.31-.39.76-.64,1.15-.92s.85-.46,1.31-.61.93-.2,1.41-.22ZM171.04,41.23c-.16.44-.24,1.03-.42,1.62-.15.52-.38,1.05-.52,1.58-.15.57-.08,1.19-.21,1.67-.24.94-.2.8-.41,1.61-.11.38-.38.94-.57,1.47-.21.57-.48,1.17-.67,1.78-.2.62-.48,1.5-.27,1.73.28.29.95.19,1.64.26.68.07,1.37.33,2.02.36.58.03,1.2-.12,1.62-.07.43.04.85.18,1.26.2.45.02.89-.01,1.27-.08.35-.06.37-.18.59-.31.1-.06.23-.11.26-.26.03-.17.06-.31-.01-.72-.07-.39-.18-.88-.37-1.4-.19-.51-.41-1.04-.63-1.55-.21-.49-.57-.96-.74-1.4-.15-.38-.34-.85-.54-1.35-.17-.43-.35-.89-.53-1.36s-.28-.95-.45-1.39c-.19-.49-.39-.95-.55-1.36-.31-.8-.43-.62-.66-1.3-.14-.5-.81-.47-1.1.25Z"/>
      <path d="M143.36,16.31c.48-.04,1.07.12,1.69.08.53-.03,1.1-.13,1.68-.13s1.13-.05,1.68.02c.56.07,1.14.21,1.72.4s1.14.35,1.64.68.82.82,1.18,1.31c.33.44.71.9.91,1.52.16.5.1,1.01.12,1.48.02.51.14,1.02-.01,1.49s-.39.94-.72,1.33c-.42.5-1.07.69-1.62.97-.58.3-1.11.71-1.68.85-.49.12-1.01.27-1.53.33s-1.06-.06-1.56-.04c-.55.02-1.07.06-1.55.05-.62,0-1.16-.04-1.54-.05,0,0,0,.06,0,.06s0-.08,0-.08c-.48-.02-.96-.06-1.46-.02-.45.04-.93.04-1.46.09-.56.05-1.15.05-1.78.05-.58,0-1.16,0-1.77-.09-.73-.12-.71.04-1.48-.05-.51-.06-1.04-.26-1.46-.28-.5-.03-1.06-.02-1.62-.05s-1.09,0-1.62-.05c-.7-.03-.58-.11-1.41-.11-.42,0-.91.09-1.41.09-.47,0-.95.04-1.42.04-.5,0-.99.08-1.41.08-.96.04-1.49-.05-1.86.09-.2.08-.42.26-.55.61-.21.55-.23,1.08-.25,1.65s-.2,1.15-.16,1.71c.04.59.11,1.15.05,1.69-.06.5-.08,1.13-.11,1.76s0,1.22-.01,1.76c-.01.98-.01,1.72,0,1.76.03.31,0,.65.02.9.04.38.13.72.19,1.01.07.32.53.62,1.07.85.43.19.91.5,1.35.52.48.03.97-.26,1.46-.25.46,0,.68.14,1.36.17.6.03,1.2.09,1.79.07s1.17-.13,1.79-.17c.57-.04,1.16-.19,1.79-.21.41-.02.95.04,1.54.09.49.05,1.01.15,1.51.22.54.08,1.07.1,1.52.17.87.14.81-.01,1.52.26.82.32.67.57,1.39,1.14.5.39.92.85,1.12,1.29.23.52.57,1,.56,1.5,0,.55-.13,1.13-.32,1.6-.18.44-.47.87-.76,1.26s-.79.57-1.16.89-.65.74-1.06.98-.91.35-1.36.5c-.51.17-1,.45-1.53.57s-1.09.05-1.63.11-1.07.14-1.61.16-1.09.11-1.62.1c-.51-.01-1.01-.18-1.52-.21s-1.03-.01-1.53-.05-1.03-.03-1.52-.08c-.52-.05-1.05,0-1.53-.04-1.02-.15-1.4-.38-2.02-.38-.29,0-.37.12-.75.3-.11.11-.39.27-.51.92-.11.64-.1,1.02-.16,2.04-.05.45-.14.95-.17,1.49-.03.48.2.99.18,1.5s-.26.99-.27,1.49.12,1.01.11,1.5c0,.52-.02,1.03-.02,1.49,0,.55,0,1.06,0,1.49.01.91-.09.75-.01,1.49.09.51.19,1.03.28,1.56s.06,1.05.12,1.58.23,1.03.27,1.56.02,1.05.02,1.58.11,1.06.06,1.59-.16,1.05-.26,1.57-.27,1.02-.43,1.53-.23,1.05-.45,1.54c-.3.59-.38.52-.76,1.11-.25.38-.55.79-.81,1.06-.32.35-.86.66-1.38,1-.47.3-.93.45-1.54.39-.5-.05-1.27-.02-1.95-.33s-1.28-.73-1.61-1.19c-.32-.44-.38-1.03-.56-1.52-.21-.54-.56-1.02-.62-1.5-.06-.87,0-.84,0-1.75,0-.63,0-1.31.04-1.76.07-.57.17-1.06.24-1.52.07-.52.04-1.01.08-1.53.04-.5.18-.99.2-1.49s.15-1,.15-1.5-.02-1-.04-1.51-.28-.98-.32-1.48c-.07-.79.14-.67.08-1.59-.03-.47.02-1.02,0-1.58-.03-.53-.3-1.06-.31-1.58-.01-.58,0-1.14.01-1.59.05-.74.01-.72.08-1.49.05-.55.21-1.11.25-1.48.04-.44.07-.84.09-1.23.02-.43.02-.83-.02-1.22-.06-.47.05-1.02,0-1.59-.04-.5-.3-1.02-.32-1.57-.03-.52.04-1.05.03-1.59s-.1-1.06-.11-1.59-.02-1.08-.02-1.59c0-.56.04-1.09.04-1.59,0-.59.17-1.13.17-1.58,0-.97,0-.79.04-1.58.06-.55.09-1.09.13-1.63s-.06-1.1-.03-1.65.19-1.08.22-1.63-.12-1.1-.1-1.65.23-1.08.24-1.63-.02-1.09,0-1.64-.09-1.09-.07-1.64c0-.39.17-.88.17-1.44,0-.45.05-.93.07-1.43.02-.47,0-.95.05-1.43s.12-.95.22-1.42c.09-.44.23-.9.4-1.38.16-.45.25-.93.5-1.36s.45-.9.8-1.24.85-.45,1.31-.66c.41-.19.85-.29,1.37-.35.8-.03.77-.13,1.59-.09.59.02,1.21.06,1.6.11.39.05.85.2,1.28.24.69.07.64.14,1.29.18.53.02,1.06.04,1.59.05s1.06-.2,1.59-.2,1.06.09,1.59.07,1.06-.02,1.59-.06c.56-.04,1.1-.22,1.65-.24s1.12.19,1.67.18,1.11-.13,1.66-.13,1.12-.12,1.67-.11c.53,0,1.05.29,1.57.3s1.06-.29,1.58-.29,1.05.08,1.57.07,1.03-.1,1.56-.13c.26-.04.27.02.52,0Z"/>
      <path d="M92.65,19.01c.22-.57.39-1.16.76-1.54.41-.42,1.02-.55,1.54-.76s1.06-.31,1.63-.31,1.1.08,1.64.26.98.47,1.42.83c0,0,.4.5.83,1.26.24.43.73.8.95,1.27.25.54.25,1.14.3,1.54.08.65.07,1.3.06,1.92,0,.72.02,1.38-.03,1.92-.02.51.02,1.03.02,1.55s-.04,1.03-.03,1.56-.03,1.03,0,1.56c.02.77.08.64.09,1.53,0,.46-.06,1-.05,1.54s.19,1.05.19,1.54c0,.62-.07,1.18-.08,1.53-.01.34.02.86,0,1.46,0,.45-.16.95-.16,1.47,0,.49.02.99.02,1.48,0,.53-.03,1.03-.02,1.48.01.66,0,1.2.01,1.47,0,.06.12.63.1,1.51,0,.44-.18.95-.19,1.52,0,.48.05.99.05,1.52,0,.49,0,1,0,1.52s.16,1.01.17,1.52-.21,1.04-.19,1.53c.02.35.28.85.23,1.41-.04.44-.24.91-.31,1.38s-.05.98-.12,1.4c-.12.67-.21,1.2-.25,1.38-.04.16-.1.8-.23,1.67-.08.5-.21,1.06-.31,1.66-.09.55-.25,1.11-.34,1.66-.1.59-.36,1.13-.45,1.64-.14.76-.19,1.36-.29,1.64-.37.76-.26.6-.8,1.49-.25.42-.7.82-1.04,1.35-.29.45-.6.92-.94,1.41-.31.45-.59.95-.93,1.42s-.66.92-1.02,1.36-.69.92-1.07,1.32c-.4.44-.88.75-1.28,1.12-.45.41-.77.93-1.21,1.2-.44.27-1,.36-1.5.6-.46.23-.89.59-1.4.79s-.96.46-1.48.64-1.08.08-1.61.23-.99.41-1.53.52-1.03.34-1.56.42-1.09-.09-1.63-.04-1.06.04-1.6.06-1.07.12-1.6.1-1.08.02-1.61-.03-1.04-.31-1.57-.39-1.08-.04-1.6-.17-1.03-.3-1.54-.47c-.37-.13-.86-.3-1.4-.54-.43-.19-.9-.4-1.37-.64s-.96-.35-1.4-.59c-.47-.26-.92-.51-1.32-.75-.53-.33-.88-.76-1.14-1-.2-.19-.65-.67-1.1-1.14s-1.01-.86-1.2-1.04c-.41-.38-.65-.92-1.01-1.32s-.81-.76-1.13-1.2-.56-.95-.85-1.42-.59-.93-.84-1.42-.54-.96-.75-1.47-.35-1.04-.53-1.57-.34-1.04-.49-1.58-.24-1.07-.35-1.61-.3-1.07-.39-1.61-.16-1.09-.22-1.64c0,0,.15-.02.15-.03s-.12,0-.12,0c-.04-.52.07-1.04.03-1.56s-.27-1.02-.3-1.54.11-1.04.08-1.56-.06-1.03-.09-1.55-.03-1.04-.05-1.55-.13-1.03-.15-1.55-.08-1.03-.09-1.55-.11-1.03-.12-1.55.2-1.04.19-1.56-.1-1.03-.11-1.55-.19-1.03-.2-1.55.23-1.04.22-1.56c0-.03-.2-.02-.2-.05s.18-.02.19-.05c.02-.52.05-1.04.06-1.55s-.2-1.04-.19-1.56.03-1.03.03-1.55-.08-1.03-.08-1.55,0-1.04,0-1.55c0-.52.02-1.04.02-1.56s0-1.04.02-1.56,0-1.04.01-1.56.29-1.03.31-1.56.06-1.04.09-1.56c.02-.45-.17-.97-.09-1.49.07-.47.34-.92.48-1.42s.24-.94.45-1.4.37-.91.67-1.32.72-.63,1.11-.96c.5-.32.88-.68,1.34-.82.56-.16,1.1-.26,1.59-.22.56.05,1.03.35,1.48.57.51.25.92.57,1.27.91.47.46.73.92.87,1.26.05.12.18.07.23.18,0,0,.04,0,.05,0s-.19.07-.19.08c.15.44.36.86.46,1.32s.3.91.36,1.37.06.95.09,1.41c.04.49.07.96.09,1.4.03.81.03.66.05,1.63.01.48-.1,1.04-.09,1.63,0,.53-.01,1.08-.02,1.63s.08,1.12.06,1.63c-.02.62.01,1.19-.04,1.62-.05.75-.09.61-.1,1.5,0,.45-.05.97-.05,1.5,0,.5.12,1.01.13,1.51,0,.54.05,1.05.07,1.5.01.32-.11.9-.13,1.57,0,.49,0,1.03,0,1.57s.07,1.09.06,1.58c-.01.7-.05,1.28-.04,1.57,0,.76-.11.58-.12,1.53,0,.44,0,.95,0,1.52,0,.47-.14.99-.13,1.53,0,.49.26,1,.27,1.52s-.18,1.02-.16,1.53.14,1.02.17,1.52.24,1.02.28,1.51c.04.53-.15,1.06-.09,1.55.07.54.29,1.03.38,1.48.11.55.18,1.11.33,1.64s.48,1.02.68,1.54.31,1.09.54,1.58c.25.52.47,1.04.73,1.51.3.53.72.96,1.06,1.42.37.5.76.92,1.17,1.3.46.43.84.91,1.32,1.17.45.23.93.42,1.42.57s1.01.12,1.52.2.99.11,1.51.14,1,.01,1.52-.01,1-.08,1.51-.15,1.05.08,1.55-.02.96-.38,1.45-.51.99-.26,1.47-.42c.54-.19,1.08-.32,1.55-.59s.93-.62,1.34-.98.87-.71,1.22-1.15.55-.97.82-1.45.63-.92.85-1.44.38-1.04.54-1.58.22-1.08.33-1.63c.15-.84.12-.7.26-1.69.07-.51-.04-1.12.05-1.72.07-.56.27-1.13.33-1.69.07-.62.12-1.21.16-1.71.04-.59,0-1.19.03-1.8s.04-1.2.08-1.8.08-1.2.12-1.8.2-1.19.26-1.79c.03-.33.14-.96.11-1.71-.02-.53.02-1.12-.01-1.71s-.24-1.17-.28-1.7c-.04-.73-.1-1.34-.12-1.7-.02-.31-.11-.84-.11-1.46,0-.45.1-.95.12-1.46.01-.48-.09-.99-.08-1.47.01-.52.16-1.02.17-1.46.01-.65.05-1.17.04-1.46-.03-.36.13-.96.17-1.68.03-.53-.19-1.13-.15-1.71s.31-1.16.34-1.68c.05-.76-.07-1.39-.07-1.7-.01-.26-.1-.92-.08-1.74.01-.53.18-1.13.22-1.73s-.01-1.21.05-1.74c.08-.74.34-1.33.48-1.65Z"/>
      <path d="M13.29,22.74c.38.7.23.55.71,1.43.21.4.46.88.74,1.41.23.43.47.91.74,1.41.24.44.68.81.94,1.3.24.45.33,1.01.58,1.49s.71.82.96,1.3.4.99.66,1.46.62.88.87,1.35.49.95.74,1.42.51.95.75,1.42c.26.49.43,1,.67,1.46.26.5.35,1.05.58,1.5.27.51.6.94.82,1.37.29.56.66.98.84,1.35.22.41.25.96.5,1.4.24.41.52.82.77,1.25s.58.79.82,1.22.5.84.73,1.28.47.86.68,1.31c.2.44.48.84.68,1.28s.34.91.54,1.35.31.91.51,1.35c.22.49.35,1.02.57,1.51s.7.86.92,1.35c.25.54.09.61.32,1.16.19.49.55.91.84,1.4.26.45.37,1.01.68,1.5.44.75.74,1.17.87,1.39.08-.52.28-1.12.32-1.74.05-.96.09-.9.12-1.81.03-.5.05-1.01.07-1.51s.09-1.01.1-1.51-.14-1.01-.14-1.51-.03-1.01-.02-1.52.03-1.01.03-1.52c.02-.72.13-.62.18-1.43.03-.45.08-.96.11-1.44.03-.55.01-1.07.03-1.44.04-.66-.04-1.3-.04-1.93s-.12-1.27-.2-1.91c-.07-.51-.07-1.04-.12-1.55s-.09-1.03-.13-1.55,0-1.04-.04-1.56-.12-1.03-.14-1.55-.11-1.04-.11-1.56.27-1.04.28-1.55-.12-1.04-.11-1.56-.02-1.04,0-1.56.13-1.04.15-1.55.08-1.03.11-1.55-.06-1.04-.03-1.56c.02-.39.25-.96.29-1.64.03-.51-.11-1.09-.03-1.66s.16-1.11.31-1.63c.14-.47.33-1,.61-1.48.26-.44.6-.88,1.03-1.23.4-.33,1.11-.59,1.77-.68.94-.12,1.85.11,1.86.11.66.16,1.12.5,1.54.88.47.42.76.92,1.01,1.45.28.6.63,1.16.73,1.67.08.44.09.91.13,1.35.04.47.18.93.19,1.35,0,.54-.21,1.01-.21,1.35,0,.53-.04,1.07-.03,1.6s.12,1.06.13,1.6-.09,1.06-.09,1.6.01,1.07.02,1.6,0,1.07,0,1.6.26,1.06.27,1.6-.23,1.07-.22,1.61.21,1.07.22,1.6.05,1.07.05,1.61.04,1.07.04,1.61-.08,1.07-.08,1.61.07,1.07.06,1.6c0,.54-.12,1.07-.12,1.6s.1,1.07.09,1.6-.12,1.06-.12,1.59-.14,1.06-.14,1.59.22,1.06.23,1.59-.11,1.06-.09,1.6c.04.51.23,1.09.25,1.72.02.55-.28,1.14-.28,1.74s.27,1.16.27,1.74.03,1.19.02,1.74c-.01.64-.04,1.23-.05,1.74-.03,1.05-.24.86-.28,1.72-.03.48.11.98.1,1.5-.01.49-.24.98-.25,1.49s.18.99.17,1.5-.16.99-.18,1.49-.05.99-.09,1.49.09,1.01.03,1.51-.34.96-.43,1.45c-.1.56-.09,1.11-.28,1.58-.21.51-.41,1.04-.72,1.45s-.82.71-1.24,1.04c-.4.32-.91.62-1.44.96-.47.3-.93.72-1.49.9-.53.17-1.13.11-1.74.07-.53-.03-1.05,0-1.51-.17s-.96-.4-1.37-.69-.67-.77-1.02-1.13-.8-.65-1.1-1.06-.6-.84-.85-1.26c-.26-.45-.53-.9-.74-1.33-.31-.61,0-.67-.36-1.36-.2-.38-.51-.76-.73-1.17-.24-.44-.54-.83-.72-1.17-.22-.4-.49-.79-.71-1.21s-.31-.9-.52-1.32-.38-.85-.58-1.28c-.22-.47-.61-.85-.83-1.32s-.41-.94-.63-1.41-.36-.97-.58-1.43-.45-.93-.67-1.39-.59-.86-.82-1.32-.47-.91-.69-1.37-.45-.92-.68-1.38-.22-1.04-.46-1.49-.61-.84-.85-1.29-.55-.87-.8-1.32-.37-.96-.62-1.41c-.39-.7-.26-.58-.73-1.43-.23-.41-.44-.91-.72-1.43-.25-.45-.51-.92-.77-1.4s-.67-.86-.92-1.33-.51-.97-.74-1.42c-.27-.52-.5-1.02-.71-1.43-.24-.46-.39-1.23-.66-1.89-.15-.37-.53-.65-.7-1.03s-.23-.8-.41-1.16c-.35-.7-.8-1.18-1.12-1.58-.01.05-.13.61-.25,1.49-.07.49-.12,1.06-.18,1.61s.04,1.14.02,1.62c-.02.57,0,1.14-.01,1.7s.03,1.15.03,1.7c0,.59-.07,1.16-.06,1.69.02.62-.01,1.19,0,1.7.02.73.2,1.32.2,1.69,0,.53-.1,1.07-.09,1.61s-.2,1.07-.19,1.61.04,1.07.05,1.61.02,1.07.03,1.61.32,1.06.33,1.6.01,1.07.03,1.61-.13,1.08-.12,1.61.06,1.07.06,1.61-.08,1.08-.08,1.61.15,1.08.14,1.61.03,1.07,0,1.61c0,.77-.09.65-.06,1.53.02.47.02,1,.03,1.54.02.49.04,1.02.04,1.57,0,.52.07,1.05.04,1.58s-.07,1.07-.13,1.58c-.1.77-.51,1.49-.76,2.19-.13.35-.26.71-.49,1.07-.21.33-.44.61-.77.87-.38.3-.74.51-1.2.61s-.89.18-1.37.08c-.37-.08-.95-.19-1.42-.46-.66-.37-.5-.57-1.09-1.01-.37-.31-.8-.53-1.07-.91s-.6-.77-.79-1.19-.14-.98-.27-1.41c-.19-.61-.39-1.21-.49-1.82-.11-.67-.32-1.3-.34-1.87-.02-.85-.02-.69-.02-1.7,0-.5.12-1.08.13-1.69,0-.55.06-1.12.08-1.69s.02-1.15.06-1.69c.04-.62.04-1.2.1-1.69.05-.57.15-1.14.2-1.71s.19-1.13.23-1.7-.23-1.16-.19-1.73.2-1.13.24-1.7.17-1.14.21-1.71c.03-.52-.18-1.05-.18-1.58s.19-1.05.18-1.58-.12-1.04-.14-1.58c-.02-.55.02-1.12.01-1.69s-.09-1.13-.08-1.7.05-1.13.09-1.69c.04-.77.05-.58.07-1.54,0-.44.15-.96.16-1.55,0-.48-.05-1-.04-1.55,0-.49.08-1.01.08-1.55,0-.5-.19-1.03-.18-1.55s-.02-1.03-.02-1.55.22-1.04.23-1.55-.01-1.05,0-1.55c0-.54,0-1.06,0-1.55,0-.55.06-1.07.06-1.55,0-.37-.24-.91-.25-1.56,0-.47.11-1,.12-1.56,0-.5-.03-1.02,0-1.56s.06-1.04.12-1.56.13-1.04.23-1.55c.09-.49.17-1.01.32-1.51s.35-.97.58-1.43.62-.81.95-1.2c.26-.31.4-.78.75-1.02s.8-.24,1.21-.37c.43-.14.85-.28,1.3-.28s.9-.02,1.35.09c.53.12,1.05.28,1.48.53.46.27.71.79,1.07,1.14.38.38.73.75,1.01,1.14.39.56.81,1.09,1.1,1.61"/>
      <path d="M177.41.28c-.51.06-1.02.17-1.53.22s-1.03.05-1.54.09-1.02.15-1.54.19-1.03.06-1.55.1c-.56.04-1.13-.05-1.7-.06s-1.12-.04-1.7-.06c-.45-.02-.91-.04-1.38-.04s-.92,0-1.38.01c-.51.03-1.03.11-1.54.14-.39.01-.98-.13-1.65-.12-.51,0-1.08.1-1.65.16s-1.1.17-1.62.3c-.46.12-.95.33-1.43.58-.45.23-.96.43-1.32.82-.35.39-.45,1.04-.55,1.61-.13.74-.11,1.43-.02,1.67.21.6.54,1.04.94,1.43.43.42.87.82,1.39,1.05.58.25,1.18.43,1.68.51.44.08.92-.03,1.37,0,.47.03.93.2,1.35.2.54,0,1.02-.02,1.35-.02.56,0,1.13-.13,1.69-.13.53.01,1.07.04,1.55.03.68-.02,1.25-.03,1.54-.03.47,0,1,.06,1.56.06.49,0,1.02-.01,1.56-.02.51,0,1.03-.03,1.56-.03s1.05-.07,1.56-.08,1.06,0,1.56-.01c.55,0,1.08.11,1.57.1.58,0,1.11-.18,1.56-.19.96-.01.78.02,1.56,0,.36-.02,1.1.07,2.22.12.53.02,1.11.1,1.7.08s1.15-.09,1.69-.17c.56-.08,1.12-.22,1.62-.45.49-.22,1.04-.55,1.44-1.16.22-.34.43-.71.5-1.12s-.04-.8-.11-1.22c-.05-.32-.17-.78-.36-1.19-.27-.59-.25-.57-.64-1.05-.51-.63-.52-.58-1.18-1.1-.47-.37-.99-.72-1.36-.86-.44-.16-.86-.39-1.3-.48-.48-.09-.96,0-1.38-.02-.76-.03-.63-.16-1.52-.15-.46,0-.98.09-1.52.11-.51.01-1.03.05-1.53.08-.56.04-1.09.02-1.53.09Z"/>
      <path d="M134.24,61.96c.28-.06.68-.13,1.16-.11s1.05.14,1.64.42c.58.28,1.05.66,1.4,1.1.5.62.78,1.35.89,2.04.06.37.08.74.07,1.08-.02.6-.14,1.14-.33,1.55-.22.48-.53.87-.9,1.2s-.82.59-1.3.75c-.4.13-.81.21-1.25.2-.41,0-.83-.08-1.25-.22-.57-.19-.9-.19-1.37-.5-.52-.35-1.03-.74-1.42-1.19-.52-.6-.83-1.32-.83-2.19,0,0-.03-.21-.01-.44.02-.26.1-.62.26-1.03.15-.41.36-.76.59-1.06.29-.37.62-.67.94-.89.13-.08.25-.17.39-.25.41-.22.86-.36,1.31-.46Z"/>
    </g>
  </g>
</svg>