<svg width="13" height="13" viewBox="0 0 13 13" fill="none" xmlns="http://www.w3.org/2000/svg">
<path d="M13 6.5C13 6.5 10.5625 2.03125 6.5 2.03125C2.4375 2.03125 0 6.5 0 6.5C0 6.5 2.4375 10.9688 6.5 10.9688C10.5625 10.9688 13 6.5 13 6.5ZM0.952818 6.5C0.999071 6.42948 1.05181 6.35113 1.11091 6.26634C1.383 5.87594 1.7845 5.35673 2.30109 4.84015C3.34834 3.7929 4.778 2.84375 6.5 2.84375C8.222 2.84375 9.65166 3.7929 10.6989 4.84015C11.2155 5.35673 11.617 5.87594 11.8891 6.26634C11.9482 6.35113 12.0009 6.42948 12.0472 6.5C12.0009 6.57052 11.9482 6.64887 11.8891 6.73366C11.617 7.12406 11.2155 7.64327 10.6989 8.15985C9.65166 9.2071 8.222 10.1562 6.5 10.1562C4.778 10.1562 3.34834 9.2071 2.30109 8.15985C1.7845 7.64327 1.383 7.12406 1.11091 6.73366C1.05181 6.64887 0.999071 6.57052 0.952818 6.5Z" fill="white" fill-opacity="0.5"/>
<path d="M6.5 4.46875C5.37817 4.46875 4.46875 5.37817 4.46875 6.5C4.46875 7.62183 5.37817 8.53125 6.5 8.53125C7.62183 8.53125 8.53125 7.62183 8.53125 6.5C8.53125 5.37817 7.62183 4.46875 6.5 4.46875ZM3.65625 6.5C3.65625 4.92944 4.92944 3.65625 6.5 3.65625C8.07056 3.65625 9.34375 4.92944 9.34375 6.5C9.34375 8.07056 8.07056 9.34375 6.5 9.34375C4.92944 9.34375 3.65625 8.07056 3.65625 6.5Z" fill="white" fill-opacity="0.5"/>
</svg>
