<svg width="13" height="13" viewBox="0 0 13 13" fill="none" xmlns="http://www.w3.org/2000/svg">
<path d="M10.8541 9.13067C12.2373 7.89844 13 6.50015 13 6.50015C13 6.50015 10.5625 2.0314 6.5 2.0314C5.675 2.0314 4.91702 2.21569 4.23286 2.50943L4.85919 3.13576C5.37049 2.95211 5.91858 2.8439 6.5 2.8439C8.222 2.8439 9.65166 3.79305 10.6989 4.8403C11.2155 5.35689 11.617 5.8761 11.8891 6.26649C11.9482 6.35128 12.0009 6.42964 12.0472 6.50015C12.0009 6.57067 11.9482 6.64903 11.8891 6.73381C11.617 7.12421 11.2155 7.64342 10.6989 8.16C10.565 8.29392 10.4248 8.42623 10.2786 8.55516L10.8541 9.13067Z" fill="white" fill-opacity="0.5"/>
<path d="M9.1792 7.45577C9.28574 7.15711 9.34375 6.8354 9.34375 6.50015C9.34375 4.92959 8.07056 3.6564 6.5 3.6564C6.16475 3.6564 5.84305 3.71442 5.54438 3.82095L6.21252 4.48909C6.30643 4.47578 6.40241 4.4689 6.5 4.4689C7.62183 4.4689 8.53125 5.37832 8.53125 6.50015C8.53125 6.59774 8.52437 6.69372 8.51106 6.78763L9.1792 7.45577Z" fill="white" fill-opacity="0.5"/>
<path d="M6.7875 8.51121L7.45564 9.17935C7.15697 9.28589 6.83526 9.3439 6.5 9.3439C4.92944 9.3439 3.65625 8.07071 3.65625 6.50015C3.65625 6.16489 3.71427 5.84318 3.82081 5.54452L4.48894 6.21265C4.47563 6.30657 4.46875 6.40256 4.46875 6.50015C4.46875 7.62198 5.37817 8.5314 6.5 8.5314C6.59759 8.5314 6.69358 8.52452 6.7875 8.51121Z" fill="white" fill-opacity="0.5"/>
<path d="M2.72142 4.44513C2.57518 4.57407 2.43501 4.70638 2.30109 4.8403C1.7845 5.35689 1.383 5.8761 1.11091 6.26649C1.05181 6.35128 0.999071 6.42964 0.952818 6.50015C0.999071 6.57067 1.05181 6.64903 1.11091 6.73381C1.383 7.12421 1.7845 7.64342 2.30109 8.16C3.34834 9.20725 4.778 10.1564 6.5 10.1564C7.08143 10.1564 7.62952 10.0482 8.14083 9.86454L8.76716 10.4909C8.08299 10.7846 7.325 10.9689 6.5 10.9689C2.4375 10.9689 0 6.50015 0 6.50015C0 6.50015 0.762707 5.10186 2.14591 3.86962L2.72142 4.44513Z" fill="white" fill-opacity="0.5"/>
<path d="M11.0877 11.6624L1.33774 1.91241L1.91226 1.33789L11.6623 11.0879L11.0877 11.6624Z" fill="white" fill-opacity="0.5"/>
</svg>
