<svg width="24" height="24" viewBox="0 0 24 24" fill="none" xmlns="http://www.w3.org/2000/svg">
<path d="M15.7505 10.4932V5.99316C15.7505 3.9221 14.0716 2.24316 12.0005 2.24316C9.92942 2.24316 8.25048 3.9221 8.25048 5.99316V10.4932M19.6065 8.50039L20.8697 20.5004C20.9396 21.1646 20.4188 21.7432 19.7508 21.7432H4.25012C3.58221 21.7432 3.06138 21.1646 3.1313 20.5004L4.39446 8.50039C4.45473 7.92783 4.93755 7.49316 5.51328 7.49316H18.4877C19.0634 7.49316 19.5462 7.92783 19.6065 8.50039ZM8.62548 10.4932C8.62548 10.7003 8.45759 10.8682 8.25048 10.8682C8.04338 10.8682 7.87548 10.7003 7.87548 10.4932C7.87548 10.2861 8.04338 10.1182 8.25048 10.1182C8.45759 10.1182 8.62548 10.2861 8.62548 10.4932ZM16.1255 10.4932C16.1255 10.7003 15.9576 10.8682 15.7505 10.8682C15.5434 10.8682 15.3755 10.7003 15.3755 10.4932C15.3755 10.2861 15.5434 10.1182 15.7505 10.1182C15.9576 10.1182 16.1255 10.2861 16.1255 10.4932Z" stroke="#0F172A" stroke-width="1.5" stroke-linecap="round" stroke-linejoin="round"/>
</svg>
